<svg width="49" height="61" viewBox="0 0 49 61" fill="none" xmlns="http://www.w3.org/2000/svg">
<path d="M38.8985 0H18.8891H17.3386L16.2429 1.09553L1.09553 16.2439L0 17.3394V18.8892V50.1195C0 55.6901 4.53175 60.2227 10.1033 60.2227H38.8985C44.4683 60.2227 49 55.6901 49 50.1195V10.1033C49 4.53175 44.4683 0 38.8985 0ZM45.26 50.1194C45.26 53.6336 42.4119 56.4817 38.8985 56.4817H10.1033C6.58826 56.4817 3.74015 53.6336 3.74015 50.1194V18.8891H13.587C16.514 18.8891 18.8891 16.5157 18.8891 13.5878V3.74086H38.8985C42.4119 3.74086 45.26 6.58896 45.26 10.1033V50.1194Z" fill="white"/>
<path d="M14.6136 29.7332H11.258C10.6191 29.7332 10.2363 30.1487 10.2363 30.7712V39.4463C10.2363 40.1977 10.7308 40.693 11.4174 40.693C12.0891 40.693 12.5835 40.1978 12.5835 39.4463V36.8108C12.5835 36.7467 12.6163 36.7147 12.6804 36.7147H14.6136C16.9773 36.7147 18.3997 35.2767 18.3997 33.2317C18.3998 31.1547 16.9937 29.7332 14.6136 29.7332ZM14.4692 34.6854H12.6804C12.6163 34.6854 12.5835 34.6534 12.5835 34.5901V31.8578C12.5835 31.7937 12.6163 31.7618 12.6804 31.7618H14.4692C15.4596 31.7618 16.0509 32.3531 16.0509 33.2318C16.051 34.1105 15.4596 34.6854 14.4692 34.6854Z" fill="white"/>
<path d="M23.8165 29.7332H21.2443C20.6054 29.7332 20.2227 30.1487 20.2227 30.7712V39.5744C20.2227 40.1978 20.6053 40.5969 21.2443 40.5969H23.8165C26.1325 40.5969 27.5713 39.8618 28.1462 38.0887C28.3532 37.4653 28.4664 36.7147 28.4664 35.1649C28.4664 33.6153 28.3531 32.8646 28.1462 32.2413C27.5712 30.4682 26.1325 29.7332 23.8165 29.7332ZM25.8943 37.274C25.6216 38.1363 24.8398 38.5042 23.7524 38.5042H22.6667C22.6026 38.5042 22.5698 38.4722 22.5698 38.4083V31.9219C22.5698 31.8578 22.6026 31.8258 22.6667 31.8258H23.7524C24.8398 31.8258 25.6216 32.1937 25.8943 33.0561C26.006 33.424 26.0848 34.0629 26.0848 35.1651C26.0848 36.2672 26.0059 36.9061 25.8943 37.274Z" fill="white"/>
<path d="M36.8704 29.7332H31.5995C30.9606 29.7332 30.5762 30.1487 30.5762 30.7712V39.4463C30.5762 40.1977 31.0723 40.693 31.7589 40.693C32.429 40.693 32.925 40.1978 32.925 39.4463V36.3468C32.925 36.2835 32.9561 36.2515 33.0202 36.2515H36.0885C36.7751 36.2515 37.1742 35.8361 37.1742 35.2447C37.1742 34.6533 36.7751 34.2387 36.0885 34.2387H33.0202C32.9561 34.2387 32.925 34.2067 32.925 34.1426V31.8578C32.925 31.7937 32.9561 31.7618 33.0202 31.7618H36.8704C37.5258 31.7618 37.9578 31.3306 37.9578 30.7558C37.9577 30.1642 37.5256 29.7332 36.8704 29.7332Z" fill="white"/>
</svg>
