<svg width="171" height="58" viewBox="0 0 171 58" fill="none" xmlns="http://www.w3.org/2000/svg">
<path fill-rule="evenodd" clip-rule="evenodd" d="M73.6456 6.82902H73.2256C72.9909 6.80162 72.7531 6.82794 72.5299 6.90599C72.3068 6.98404 72.1041 7.11181 71.937 7.27974C71.7699 7.44767 71.6428 7.65141 71.5652 7.87571C71.4875 8.1 71.4613 8.33905 71.4886 8.57495V28.2822C71.4886 33.9879 68.0827 37.4113 62.497 37.4113C56.9114 37.4113 53.4147 33.9879 53.4147 28.2822V8.57495C53.4416 8.34011 53.4156 8.10219 53.3386 7.87883C53.2615 7.65547 53.1355 7.45241 52.9697 7.2847C52.804 7.117 52.6028 6.98895 52.3811 6.91007C52.1594 6.83119 51.9228 6.80349 51.689 6.82902H51.269C51.0343 6.80162 50.7964 6.82794 50.5733 6.90599C50.3501 6.98404 50.1474 7.11181 49.9804 7.27974C49.8133 7.44767 49.6862 7.65141 49.6085 7.87571C49.5309 8.1 49.5047 8.33905 49.5319 8.57495V28.2822C49.5319 36.4185 54.3797 41.2683 62.497 41.2683C70.6144 41.2683 75.3713 36.4071 75.3713 28.2822V8.57495C75.3986 8.33905 75.3724 8.1 75.2947 7.87571C75.2171 7.65141 75.0899 7.44767 74.9229 7.27974C74.7558 7.11181 74.5531 6.98404 74.33 6.90599C74.1068 6.82794 73.869 6.80162 73.6343 6.82902M108.215 6.82902H107.795C107.561 6.80162 107.323 6.82794 107.1 6.90599C106.877 6.98404 106.674 7.11181 106.507 7.27974C106.34 7.44767 106.213 7.65141 106.135 7.87571C106.057 8.1 106.031 8.33905 106.058 8.57495V34.8209L86.5199 7.86745C86.3133 7.53512 86.0226 7.26387 85.6775 7.08143C85.3324 6.89898 84.9454 6.81188 84.5558 6.82902H83.08C82.8453 6.80162 82.6074 6.82794 82.3843 6.90599C82.1611 6.98404 81.9584 7.11181 81.7914 7.27974C81.6243 7.44767 81.4972 7.65141 81.4195 7.87571C81.3419 8.1 81.3157 8.33905 81.343 8.57495V38.7806C81.3157 39.0165 81.3419 39.2556 81.4195 39.4799C81.4972 39.7042 81.6243 39.9079 81.7914 40.0758C81.9584 40.2438 82.1611 40.3715 82.3843 40.4496C82.6074 40.5276 82.8453 40.5539 83.08 40.5265H83.5C83.7302 40.5448 83.9616 40.5117 84.1776 40.4296C84.3936 40.3475 84.5889 40.2184 84.7494 40.0515C84.91 39.8847 85.0319 39.6843 85.1064 39.4645C85.1808 39.2448 85.2061 39.0113 85.1803 38.7806V12.5347L104.73 39.4995C104.937 39.8319 105.227 40.1031 105.572 40.2856C105.918 40.468 106.305 40.5551 106.694 40.538H108.17C108.405 40.5654 108.643 40.539 108.866 40.461C109.089 40.3829 109.292 40.2552 109.459 40.0872C109.626 39.9193 109.753 39.7156 109.83 39.4913C109.908 39.267 109.934 39.0279 109.907 38.792V8.57495C109.933 8.34429 109.908 8.11074 109.833 7.89102C109.759 7.67131 109.637 7.47086 109.476 7.30402C109.316 7.13718 109.12 7.00809 108.904 6.92597C108.688 6.84385 108.457 6.81075 108.227 6.82902H108.215ZM125.585 20.6481C121.26 19.2787 119.795 17.9778 119.795 15.456C119.814 14.734 119.977 14.0231 120.275 13.3659C120.573 12.7087 120.999 12.1185 121.529 11.6307C122.059 11.1429 122.681 10.7674 123.359 10.5266C124.036 10.2859 124.755 10.1849 125.472 10.2296C126.412 10.2396 127.333 10.4887 128.151 10.9537C128.969 11.4186 129.657 12.0842 130.149 12.8884C130.315 13.2724 130.592 13.597 130.945 13.8191C131.297 14.0412 131.709 14.1504 132.125 14.1322H132.863C133.127 14.1527 133.392 14.1083 133.635 14.003C133.878 13.8976 134.093 13.7344 134.259 13.5274C134.393 13.3166 134.471 13.0753 134.487 12.826C134.503 12.5766 134.456 12.3272 134.35 12.101C133.626 10.3449 132.388 8.8513 130.801 7.81811C129.213 6.78492 127.351 6.26092 125.461 6.31552C119.784 6.31552 115.731 10.1611 115.731 15.4445C115.731 20.728 119.591 23.1472 125.392 24.9387C130.581 26.5591 132.42 28.1567 132.42 31.0552C132.42 34.5699 129.559 37.0233 125.461 37.0233C124.098 37.0621 122.754 36.6978 121.595 35.9756C120.437 35.2534 119.515 34.2051 118.944 32.9609C118.835 32.5412 118.587 32.1717 118.239 31.9142C117.892 31.6567 117.468 31.5266 117.037 31.5459H116.48C116.218 31.5242 115.954 31.5645 115.709 31.6635C115.465 31.7626 115.247 31.9177 115.073 32.1164C114.933 32.3166 114.844 32.5477 114.812 32.7901C114.78 33.0325 114.807 33.279 114.891 33.5086C115.619 35.7253 117.041 37.6461 118.943 38.9848C120.846 40.3234 123.128 41.0083 125.449 40.9373C131.807 40.9373 136.428 36.7836 136.428 31.0666C136.428 25.3495 132.147 22.7249 125.597 20.6481H125.585Z" fill="#6E6E6E"/>
<path fill-rule="evenodd" clip-rule="evenodd" d="M170.676 38.2129L156.971 8.04624C156.813 7.6642 156.54 7.33947 156.189 7.11625C155.837 6.89303 155.425 6.78216 155.008 6.79874H153.745C153.326 6.78304 152.913 6.89557 152.562 7.12092C152.21 7.34627 151.938 7.67342 151.782 8.05758L138.088 38.2129C137.955 38.4405 137.885 38.6987 137.885 38.9614C137.885 39.2242 137.955 39.4824 138.088 39.7099C138.241 39.914 138.445 40.0748 138.681 40.1763C138.917 40.2778 139.175 40.3164 139.431 40.2883H140.039C140.458 40.304 140.871 40.1915 141.222 39.9661C141.574 39.7408 141.846 39.4136 142.002 39.0295L144.298 33.8694H152.035C152.257 33.8694 152.47 33.7822 152.627 33.6269C152.784 33.4716 152.873 33.2611 152.873 33.0415V30.9321C152.873 30.7125 152.784 30.502 152.627 30.3467C152.47 30.1914 152.257 30.1042 152.035 30.1042H145.985L154.181 12.2083C154.201 12.1674 154.232 12.1329 154.27 12.1087C154.309 12.0845 154.354 12.0716 154.399 12.0716C154.445 12.0716 154.49 12.0845 154.528 12.1087C154.567 12.1329 154.598 12.1674 154.617 12.2083L162.733 30.1042H156.707C156.484 30.1042 156.271 30.1914 156.114 30.3467C155.957 30.502 155.869 30.7125 155.869 30.9321V33.0302C155.869 33.2497 155.957 33.4603 156.114 33.6156C156.271 33.7708 156.484 33.858 156.707 33.858H164.42L166.797 39.0295C166.954 39.4115 167.227 39.7362 167.579 39.9595C167.93 40.1827 168.342 40.2935 168.759 40.277H169.322C169.583 40.301 169.846 40.2595 170.087 40.1564C170.328 40.0534 170.539 39.892 170.699 39.6872C170.83 39.4631 170.899 39.2089 170.899 38.9501C170.899 38.6913 170.83 38.4371 170.699 38.2129" fill="white"/>
<path d="M170.413 43.2103H49.5215V43.6958H170.413V43.2103Z" fill="white"/>
<path fill-rule="evenodd" clip-rule="evenodd" d="M23.0673 0C35.7972 0 46.1233 12.9313 46.1233 28.8878C46.1233 44.8443 35.7972 57.7755 23.0673 57.7755C10.3374 57.7755 0 44.8443 0 28.8878C0 12.9313 10.3261 0 23.0673 0Z" fill="#1A1A18"/>
<path fill-rule="evenodd" clip-rule="evenodd" d="M23.0615 0.485535C35.522 0.485535 45.6377 13.1757 45.6377 28.8878C45.6377 44.5999 35.5333 57.2901 23.0615 57.2901C10.5897 57.2901 0.485352 44.4863 0.485352 28.831C0.485352 13.1757 10.5897 0.485535 23.0615 0.485535Z" fill="#D7B46A"/>
<path fill-rule="evenodd" clip-rule="evenodd" d="M23.0612 1.45654C34.9781 1.45654 44.6663 13.6363 44.6663 28.645C44.6663 43.6538 35.0122 55.8335 23.0612 55.8335C11.1101 55.8335 1.45605 43.6538 1.45605 28.645C1.45605 13.6363 11.1101 1.45654 23.0612 1.45654Z" fill="#1A1A18"/>
<path fill-rule="evenodd" clip-rule="evenodd" d="M23.0677 1.94208C34.7335 1.94208 44.1816 14.0039 44.1816 28.8878C44.1816 43.7717 34.7222 55.8335 23.0677 55.8335C11.4131 55.8335 1.94238 43.7717 1.94238 28.8878C1.94238 14.0039 11.4018 1.94208 23.0677 1.94208Z" fill="#D7B46A"/>
<path fill-rule="evenodd" clip-rule="evenodd" d="M23.0613 7.76819C31.7744 7.76819 38.8403 17.2182 38.8403 28.8878C38.8403 40.5574 31.7744 50.0074 23.0613 50.0074C14.3481 50.0074 7.28223 40.5459 7.28223 28.8878C7.28223 17.2297 14.3481 7.76819 23.0613 7.76819Z" fill="#1A1A18"/>
<path fill-rule="evenodd" clip-rule="evenodd" d="M23.0621 8.25372C31.5084 8.25372 38.3556 17.4914 38.3556 28.8878C38.3556 40.2843 31.5084 49.522 23.0621 49.522C14.6157 49.522 7.76855 40.2843 7.76855 28.8878C7.76855 17.4914 14.6157 8.25372 23.0621 8.25372Z" fill="#860E04"/>
<path fill-rule="evenodd" clip-rule="evenodd" d="M38.2566 28.1595C39.3743 37.101 33.6965 49.7756 23.112 49.7756C12.5275 49.7756 6.58144 37.7046 7.96737 28.1595H38.2566Z" fill="#1A1A18"/>
<mask id="mask0_727_1675" style="mask-type:alpha" maskUnits="userSpaceOnUse" x="7" y="28" width="32" height="22">
<path fill-rule="evenodd" clip-rule="evenodd" d="M38.2566 28.1595C39.3743 37.101 33.6965 49.7756 23.112 49.7756C12.5275 49.7756 6.58144 37.7046 7.96737 28.1595H38.2566Z" fill="#1A1A18"/>
</mask>
<g mask="url(#mask0_727_1675)">
<path d="M-3.93555 50.1108L-3.85731 49.9767L-2.1249 46.9143L-0.41484 43.8071L1.29522 40.6552C1.85406 39.6195 2.42408 38.5838 3.00528 37.5481C3.57529 36.5086 4.12296 35.4804 4.71533 34.4409C5.30771 33.4015 5.83302 32.3732 6.42539 31.3449L8.13545 28.2378L8.20251 28.1036" stroke="#A37400" stroke-width="0.57" stroke-miterlimit="22.93"/>
<path d="M0.367188 50.1109L0.434249 49.9768L1.85371 46.9143L3.28434 43.8071L4.71498 40.7C5.17323 39.6605 5.66501 38.6323 6.14562 37.5928C6.62622 36.5534 7.09565 35.5251 7.57625 34.4856C8.05686 33.4462 8.52629 32.4179 9.00689 31.3897C9.48749 30.3614 9.95692 29.3219 10.4375 28.2825L10.4934 28.1484" stroke="#A37400" stroke-width="0.57" stroke-miterlimit="22.93"/>
<path d="M4.63672 50.1108V49.9767C5.02791 48.9485 5.39674 47.909 5.7544 46.8696L6.87209 43.7624L7.98977 40.6552C8.35861 39.6158 8.7498 38.5875 9.10746 37.5481C9.46512 36.5086 9.86748 35.4804 10.2251 34.4409C10.5828 33.4015 10.9852 32.3732 11.3428 31.3449L12.4605 28.2378V28.1036" stroke="#A37400" stroke-width="0.57" stroke-miterlimit="22.93"/>
<path d="M8.89551 50.111V49.9768L9.81201 46.9144L10.6838 43.8072L11.5556 40.7001C11.8387 39.6643 12.1293 38.6286 12.4274 37.5929C12.718 36.5534 12.9974 35.5252 13.2992 34.4857C13.601 33.4463 13.8692 32.418 14.171 31.3897L15.0651 28.2491C15.0678 28.2044 15.0678 28.1596 15.0651 28.1149" stroke="#A37400" stroke-width="0.57" stroke-miterlimit="22.93"/>
<path d="M13.176 50.1108C13.1731 50.0662 13.1731 50.0214 13.176 49.9767C13.3772 48.941 13.5709 47.9053 13.7572 46.8696C13.9584 45.8413 14.1484 44.8018 14.3495 43.7624C14.5507 42.723 14.7407 41.6947 14.9307 40.6552C15.1207 39.6158 15.3219 38.5875 15.5119 37.5481C15.7019 36.5086 15.9031 35.4804 16.1043 34.4409C16.3055 33.4015 16.4955 32.3732 16.6967 31.3449C16.8979 30.3167 17.0879 29.2772 17.2779 28.2378V28.1036" stroke="#A37400" stroke-width="0.57" stroke-miterlimit="22.93"/>
<path d="M17.4453 50.1109C17.4453 50.1109 17.4453 50.0215 17.4453 49.9768L17.7694 46.9143C17.87 45.886 17.9706 44.8466 18.0712 43.8071C18.1718 42.7677 18.2724 41.7394 18.3842 40.7C18.4959 39.6605 18.5854 38.6323 18.6859 37.5928C18.7865 36.5534 18.8871 35.5251 18.9989 34.4856C19.1107 33.4462 19.2001 32.4179 19.3118 31.3897C19.4236 30.3614 19.513 29.3219 19.6136 28.2825C19.6166 28.2378 19.6166 28.193 19.6136 28.1484" stroke="#A37400" stroke-width="0.57" stroke-miterlimit="22.93"/>
<path d="M21.7715 50.1108V49.9767C21.7715 48.9485 21.7715 47.909 21.7715 46.8696C21.7715 45.8301 21.7715 44.8018 21.7715 43.7624C21.7715 42.723 21.7715 41.6947 21.7715 40.6552C21.7715 39.6158 21.7715 38.5875 21.7715 37.5481C21.7715 36.5086 21.7715 35.4804 21.7715 34.4409C21.7715 33.4015 21.7715 32.3732 21.7715 31.3449C21.7715 30.3167 21.7715 29.2772 21.7715 28.2378C21.7746 28.1931 21.7746 28.1483 21.7715 28.1036" stroke="#A37400" stroke-width="0.57" stroke-miterlimit="22.93"/>
<path d="M25.9851 50.1109C25.9851 50.1109 25.9851 50.0215 25.9851 49.9768L25.7169 46.9143C25.6386 45.886 25.5381 44.8466 25.4598 43.8071L25.2139 40.7C25.1245 39.6605 25.0351 38.6323 24.9457 37.5928C24.8563 36.5534 24.778 35.5251 24.6998 34.4856C24.6216 33.4462 24.5321 32.4179 24.4539 31.3897L24.208 28.2825C24.2111 28.2378 24.2111 28.193 24.208 28.1484" stroke="#A37400" stroke-width="0.57" stroke-miterlimit="22.93"/>
<path d="M30.254 50.1108C30.254 50.1108 30.254 50.0214 30.254 49.9767C30.0826 48.941 29.9038 47.9053 29.7175 46.8696C29.5387 45.8413 29.3599 44.8018 29.181 43.7624C29.0022 42.723 28.8234 41.6947 28.6445 40.6552C28.4657 39.6158 28.2869 38.5875 28.1081 37.5481C27.9292 36.5086 27.7504 35.4804 27.5716 34.4409C27.3927 33.4015 27.2139 32.3732 27.0463 31.3449C26.8786 30.3167 26.6886 29.2772 26.5098 28.2378C26.5125 28.1931 26.5125 28.1483 26.5098 28.1036" stroke="#A37400" stroke-width="0.57" stroke-miterlimit="22.93"/>
<path d="M34.5242 50.111C34.5269 50.0663 34.5269 50.0215 34.5242 49.9768L33.6748 46.9144C33.3991 45.8787 33.1271 44.8429 32.8588 43.8072C32.5906 42.7715 32.3186 41.7358 32.0429 40.7001L31.2158 37.5929C30.9476 36.5534 30.6794 35.5252 30.3999 34.4857C30.1205 33.4463 29.8635 32.3845 29.5952 31.3562C29.327 30.3279 29.0475 29.2885 28.7793 28.2491C28.7819 28.2044 28.7819 28.1596 28.7793 28.1149" stroke="#A37400" stroke-width="0.57" stroke-miterlimit="22.93"/>
<path d="M38.7937 50.1108C38.7937 50.1108 38.7937 50.0214 38.7937 49.9767C38.4361 48.9485 38.0672 47.909 37.6761 46.8696C37.2849 45.8301 36.9496 44.8018 36.5584 43.7624C36.1672 42.723 35.8319 41.6947 35.4407 40.6552L34.323 37.5481C33.9653 36.5124 33.5928 35.4766 33.2053 34.4409C32.8365 33.4126 32.4788 32.3732 32.0876 31.3449L30.9699 28.2378C30.9538 28.192 30.9352 28.1473 30.9141 28.1036" stroke="#A37400" stroke-width="0.57" stroke-miterlimit="22.93"/>
<path d="M43.0076 50.111V49.9657L41.6217 46.9144L40.2357 43.8072L38.8722 40.6554C38.4027 39.6159 37.9557 38.5876 37.4862 37.5482C37.0168 36.5087 36.5697 35.4805 36.1115 34.441C35.6532 33.4016 35.1838 32.3845 34.7479 31.3562L33.362 28.2491L33.2949 28.1149" stroke="#A37400" stroke-width="0.57" stroke-miterlimit="22.93"/>
<path d="M47.3328 50.1108C47.3328 50.1108 47.2769 50.0214 47.2546 49.9767L45.6004 46.9143L43.935 43.8071L42.292 40.6552L40.6267 37.5481C40.079 36.5086 39.509 35.4804 38.9725 34.4409L37.3295 31.3449C36.7707 30.3167 36.2118 29.2772 35.6642 28.2378L35.5859 28.1036" stroke="#A37400" stroke-width="0.57" stroke-miterlimit="22.93"/>
<path d="M51.602 50.111L51.5126 49.9768L49.579 46.9144L47.6342 43.8072L45.7006 40.6554L43.7559 37.5482C43.1188 36.5087 42.4705 35.4805 41.8223 34.441L39.8887 31.345L37.9439 28.2491L37.8545 28.1149" stroke="#A37400" stroke-width="0.57" stroke-miterlimit="22.93"/>
<path d="M-8.22754 49.9656H55.9164" stroke="#A37400" stroke-width="0.57" stroke-miterlimit="22.93"/>
<path d="M-6.1709 46.9144H53.6923" stroke="#A37400" stroke-width="0.57" stroke-miterlimit="22.93"/>
<path d="M-4.22656 43.7625H51.4565" stroke="#A37400" stroke-width="0.57" stroke-miterlimit="22.93"/>
<path d="M-2.22559 40.6552H49.1879" stroke="#A37400" stroke-width="0.57" stroke-miterlimit="22.93"/>
<path d="M-0.224609 37.5593H46.9976" stroke="#A37400" stroke-width="0.57" stroke-miterlimit="22.93"/>
<path d="M1.77539 34.4521H44.7727" stroke="#A37400" stroke-width="0.57" stroke-miterlimit="22.93"/>
<path d="M3.77637 31.3561H42.5488" stroke="#A37400" stroke-width="0.57" stroke-miterlimit="22.93"/>
<path d="M5.77734 28.249H40.325" stroke="#A37400" stroke-width="0.57" stroke-miterlimit="22.93"/>
</g>
<path d="M10.3817 32.8408V33.3659C17.465 33.4205 24.8656 33.8471 31.1103 33.5518C31.9829 32.0643 33.0483 30.533 33.9209 29.0346L34.2496 31.0908L31.1329 35.5862L11.277 35.269V34.5471C10.971 35.0393 10.5177 35.5424 10.2117 36.0346C10.2117 36.0346 10.0643 36.3956 10.6537 36.4284C11.243 36.4612 31.0536 36.8987 31.0536 36.8987C31.0536 36.8987 31.5183 36.8112 31.6543 36.5596C31.7903 36.3081 34.7143 31.7471 34.7143 31.7471L34.9069 31.4408C34.9749 30.8174 35.0543 28.4439 34.5329 28.1595L15.9577 28.3455C15.9577 28.3455 11.243 32.1518 10.3817 32.8408Z" stroke="#3A3A39" stroke-width="0.23" stroke-linecap="round" stroke-linejoin="round"/>
<path fill-rule="evenodd" clip-rule="evenodd" d="M10.3817 32.8467V33.3724C17.465 33.4271 24.8656 33.8542 31.1103 33.5585C31.9829 32.0692 33.0483 30.536 33.9209 29.0357L34.2496 31.0835L31.1329 35.5845L11.277 35.267V34.5442C10.971 35.037 10.5177 35.5407 10.2117 36.0335C10.2117 36.0335 10.0643 36.3949 10.6537 36.4278C11.243 36.4607 31.0536 36.8987 31.0536 36.8987C31.0536 36.8987 31.5183 36.8111 31.6543 36.5592C31.7903 36.3073 34.7143 31.7516 34.7143 31.7516L34.9069 31.4449C34.9749 30.8207 35.0543 28.4443 34.5329 28.1595L15.9577 28.3457C15.9577 28.3457 11.2543 32.1568 10.3817 32.8467Z" fill="#0075BE"/>
<path fill-rule="evenodd" clip-rule="evenodd" d="M11.167 33.6772V35.5964L30.8901 35.9277L33.9859 31.2325L33.6932 29.2905V29.1306L33.5919 29.3248L30.9126 33.8943C24.9461 34.2027 17.8877 33.7914 11.212 33.7229" fill="#FFF7B2"/>
<path d="M11.167 33.6772V35.5964L30.8901 35.9277L33.9859 31.2325L33.6932 29.2905V29.1306L33.5919 29.3248L30.9126 33.8943C24.8899 34.157 17.8427 33.7457 11.167 33.6772Z" stroke="#6E6E6E" stroke-width="0.28" stroke-linecap="round" stroke-linejoin="round"/>
<path d="M17.4781 29.9489L14.0151 29.616L12.623 30.7811V31.0552C12.623 31.0552 12.623 31.0552 12.7589 31.0552C12.9234 31.0057 13.0825 30.9435 13.2342 30.8692C13.5504 30.8445 13.8686 30.8445 14.1848 30.8692L14.8639 30.9378C15.0221 31.0259 15.2076 31.0703 15.3958 31.065C15.724 31.065 16.1201 31.065 16.3238 31.065C16.4933 31.0751 16.6635 31.0751 16.8331 31.065L16.9575 30.9475L17.4781 29.9489Z" stroke="#C0932E" stroke-width="0.22" stroke-linecap="round" stroke-linejoin="round"/>
<path fill-rule="evenodd" clip-rule="evenodd" d="M17.4781 29.9489L14.0151 29.616L12.623 30.7811V31.0552C12.623 31.0552 12.623 31.0552 12.7589 31.0552C12.9235 31.0058 13.0826 30.9435 13.2342 30.8692C13.5504 30.8446 13.8686 30.8446 14.1848 30.8692L14.8639 30.9378C15.0221 31.0259 15.2076 31.0703 15.3958 31.065C15.724 31.065 16.1201 31.065 16.3238 31.065C16.4933 31.0751 16.6635 31.0751 16.8331 31.065L16.9575 30.9475L17.4781 29.9489Z" fill="#FFF7B2"/>
<path fill-rule="evenodd" clip-rule="evenodd" d="M18.9126 28.1692L16.5078 30.4329V31.0328L26.0014 31.5081V32.64L16.5078 32.3344V33.2059L25.7849 33.5001C26.1126 33.4382 26.4142 33.2806 26.6511 33.0474C26.6511 32.9229 28.6455 30.4782 28.6455 30.4782L28.315 28.2145C25.1239 28.3277 22.1265 28.1126 18.9126 28.1692Z" fill="#9C0A0F"/>
<path d="M18.9126 28.1692L16.5078 30.4329V31.0328L26.0014 31.5081V32.64L16.5078 32.3344V33.2059L25.7849 33.5001C26.1126 33.4382 26.4142 33.2806 26.6511 33.0474C26.6511 32.9229 28.6455 30.4782 28.6455 30.4782L28.315 28.2145C25.1239 28.3277 22.1265 28.1126 18.9126 28.1692Z" stroke="#3A3A39" stroke-width="0.23" stroke-linecap="round" stroke-linejoin="round"/>
<path fill-rule="evenodd" clip-rule="evenodd" d="M16.5078 31.0726V32.2597L25.7325 32.5291V31.5315L16.5078 31.0726Z" fill="#FFF7B2"/>
<path d="M16.5078 31.0726V32.2597L25.7325 32.5291V31.5315L16.5078 31.0726Z" stroke="#3A3A39" stroke-width="0.23" stroke-linecap="round" stroke-linejoin="round"/>
<path d="M25.7324 31.5581L28.16 28.1595" stroke="#3A3A39" stroke-width="0.23" stroke-linecap="round" stroke-linejoin="round"/>
<path d="M24.0926 17.9638C24.0722 17.9959 24.0632 18.0349 24.0673 18.0736C24.0714 18.1123 24.0883 18.1481 24.115 18.1743C24.1416 18.2005 24.1761 18.2153 24.2121 18.2161C24.2481 18.2168 24.2831 18.2034 24.3106 18.1783V18.1783C24.311 18.2092 24.3195 18.2394 24.3353 18.2652C24.351 18.2909 24.3733 18.3113 24.3994 18.3237C24.4255 18.3361 24.4544 18.3402 24.4826 18.3353C24.5108 18.3305 24.5371 18.3169 24.5584 18.2963V18.2963C24.5606 18.324 24.5718 18.3499 24.5899 18.3695C24.608 18.3891 24.6319 18.4012 24.6575 18.4036V18.4036C24.6575 18.4321 24.6679 18.4593 24.6865 18.4795C24.7051 18.4996 24.7303 18.5109 24.7566 18.5109V18.5109C24.7528 18.5285 24.7528 18.5469 24.7566 18.5645C24.7565 18.594 24.7666 18.6225 24.7849 18.6444C24.8033 18.6662 24.8285 18.6798 24.8557 18.6825C24.8414 18.6981 24.8318 18.7181 24.8284 18.7398C24.8249 18.7615 24.8277 18.7838 24.8364 18.8037C24.845 18.8236 24.8591 18.8402 24.8768 18.8511C24.8944 18.862 24.9147 18.8668 24.9349 18.8649C24.9151 18.8719 24.8979 18.8856 24.8856 18.9039C24.8734 18.9222 24.8668 18.9442 24.8668 18.9668C24.8668 18.9894 24.8734 19.0114 24.8856 19.0297C24.8979 19.048 24.9151 19.0616 24.9349 19.0687C24.9123 19.0828 24.8935 19.1031 24.8804 19.1276C24.8673 19.1521 24.8605 19.1799 24.8605 19.2081C24.8605 19.2364 24.8673 19.2642 24.8804 19.2887C24.8935 19.3132 24.9123 19.3335 24.9349 19.3476C24.9145 19.3623 24.8977 19.3822 24.8861 19.4056C24.8745 19.429 24.8685 19.4551 24.8685 19.4817C24.8685 19.5082 24.8745 19.5344 24.8861 19.5578C24.8977 19.5812 24.9145 19.6011 24.9349 19.6158C24.9062 19.6268 24.8813 19.6471 24.8635 19.6739C24.8458 19.7008 24.8361 19.7329 24.8358 19.7659C24.8245 19.8006 24.8245 19.8385 24.8358 19.8732V19.8732C24.7964 19.8732 24.7586 19.8902 24.7307 19.9203C24.7029 19.9505 24.6872 19.9914 24.6872 20.0341C24.6844 20.0519 24.6844 20.07 24.6872 20.0877C24.6548 20.0949 24.6254 20.1135 24.6039 20.1407C24.5824 20.1679 24.5698 20.2021 24.5683 20.2379C24.5643 20.2592 24.5643 20.281 24.5683 20.3023V20.3023C24.5289 20.3023 24.4911 20.3192 24.4632 20.3494C24.4353 20.3796 24.4196 20.4205 24.4196 20.4632V20.4632C24.3879 20.4642 24.3573 20.4763 24.3323 20.4975C24.3074 20.5187 24.2894 20.5481 24.2809 20.5812V20.5812C24.272 20.6039 24.2584 20.624 24.2412 20.6401C24.224 20.6562 24.2036 20.6679 24.1816 20.6741C24.1596 20.6803 24.1365 20.681 24.1142 20.676C24.0919 20.6711 24.071 20.6606 24.053 20.6455C24.0495 20.6936 24.0611 20.7415 24.0858 20.7816C24.1106 20.8216 24.1471 20.8515 24.1894 20.8664C24.2318 20.8813 24.2775 20.8803 24.3193 20.8635C24.3611 20.8468 24.3964 20.8154 24.4196 20.7743C24.4591 20.7743 24.4969 20.7573 24.5247 20.7271C24.5526 20.697 24.5683 20.656 24.5683 20.6134V20.6134C24.5932 20.6138 24.6178 20.6075 24.6398 20.595C24.6619 20.5825 24.6807 20.5642 24.6945 20.5417C24.7083 20.5193 24.7167 20.4935 24.7189 20.4666C24.7211 20.4398 24.717 20.4128 24.707 20.3881V20.3881C24.7116 20.4092 24.7199 20.4292 24.7316 20.4468C24.7433 20.4645 24.7581 20.4794 24.7751 20.4909C24.7921 20.5023 24.8111 20.51 24.8308 20.5136C24.8506 20.5171 24.8708 20.5164 24.8904 20.5115C24.9099 20.5065 24.9283 20.4975 24.9446 20.4848C24.9609 20.4722 24.9747 20.4562 24.9853 20.4378C24.9959 20.4194 25.003 20.3989 25.0063 20.3774C25.0095 20.356 25.0089 20.3341 25.0043 20.313C25.0073 20.2953 25.0073 20.2771 25.0043 20.2594C25.0296 20.2523 25.0526 20.2383 25.0713 20.2185C25.0899 20.1988 25.1034 20.1741 25.1104 20.1469C25.1174 20.1198 25.1177 20.0911 25.1113 20.0637C25.1048 20.0364 25.0919 20.0114 25.0737 19.9912V19.9912C25.1049 19.9912 25.1353 19.9806 25.1606 19.9608C25.1859 19.9411 25.2048 19.9132 25.2147 19.8812C25.2246 19.8491 25.2249 19.8146 25.2156 19.7823C25.2063 19.7501 25.1878 19.7218 25.1629 19.7016C25.188 19.6884 25.2092 19.6678 25.224 19.6422C25.2389 19.6166 25.2467 19.587 25.2467 19.5568C25.2467 19.5265 25.2389 19.4969 25.224 19.4713C25.2092 19.4457 25.188 19.4251 25.1629 19.4119C25.188 19.3988 25.2092 19.3782 25.224 19.3526C25.2389 19.327 25.2467 19.2974 25.2467 19.2671C25.2467 19.2369 25.2389 19.2073 25.224 19.1817C25.2092 19.1561 25.188 19.1355 25.1629 19.1223V19.1223C25.176 19.108 25.1852 19.0899 25.1893 19.0702C25.1935 19.0505 25.1923 19.03 25.1861 19.0109C25.1799 18.9918 25.1688 18.9751 25.1542 18.9625C25.1396 18.95 25.122 18.9421 25.1034 18.94V18.94C25.1263 18.9297 25.1448 18.9105 25.1553 18.8862C25.1658 18.8618 25.1675 18.8341 25.16 18.8085C25.1525 18.783 25.1365 18.7613 25.115 18.7479C25.0935 18.7345 25.0682 18.7303 25.044 18.7361C25.0583 18.7205 25.0678 18.7005 25.0712 18.6788C25.0747 18.6572 25.0719 18.6349 25.0632 18.615C25.0546 18.595 25.0405 18.5785 25.0229 18.5676C25.0052 18.5566 24.9849 18.5518 24.9647 18.5538H24.9052C24.9228 18.5398 24.9356 18.52 24.9417 18.4973C24.9478 18.4747 24.9468 18.4505 24.9389 18.4285C24.931 18.4065 24.9166 18.3879 24.898 18.3757C24.8794 18.3634 24.8575 18.3582 24.8358 18.3607H24.7665M24.0133 18.5431C24.0133 18.5431 24.1422 18.7791 24.0827 18.9292C24.0437 19.0122 24.0106 19.0983 23.9836 19.1867C23.9836 19.2832 23.9043 19.2725 23.9242 19.3905C23.9162 19.5262 23.9162 19.6624 23.9242 19.7981C23.9242 19.9912 24.0332 19.9805 24.053 20.2165C24.0832 20.3467 24.0832 20.4831 24.053 20.6134C24.1141 20.6121 24.1742 20.596 24.2288 20.5661C24.2834 20.5362 24.331 20.4934 24.3682 20.4408C24.4053 20.3882 24.4311 20.3272 24.4434 20.2624C24.4557 20.1975 24.4544 20.1305 24.4395 20.0663C24.3205 19.605 24.2214 19.5192 24.2314 19.4441C24.2413 19.369 24.2908 19.3369 24.3602 19.1974C24.4295 19.058 24.4989 18.822 24.4295 18.7361C24.3602 18.6503 24.4295 18.5645 24.4295 18.4465C24.3097 18.3458 24.1648 18.286 24.0133 18.2749C23.9142 18.1998 24.0133 18.5431 24.0133 18.5431ZM23.7557 18.5431C23.7557 18.5431 23.6269 18.7791 23.6863 18.9292C23.7221 19.0125 23.7519 19.0985 23.7755 19.1867C23.7755 19.2832 23.8548 19.2725 23.835 19.3905C23.8427 19.5262 23.8427 19.6624 23.835 19.7981C23.835 19.9912 23.726 19.9697 23.6962 20.2165C23.6656 20.3467 23.6656 20.4831 23.6962 20.6134C23.6348 20.6109 23.5747 20.5935 23.5205 20.5623C23.4662 20.5311 23.4192 20.487 23.3829 20.4333C23.3467 20.3796 23.3222 20.3178 23.3112 20.2523C23.3002 20.1869 23.3031 20.1196 23.3197 20.0556C23.4386 19.5943 23.5476 19.5085 23.5377 19.4334C23.5278 19.3583 23.4782 19.3261 23.4088 19.1867C23.3395 19.0472 23.28 18.8005 23.3494 18.7254C23.4188 18.6503 23.3494 18.5538 23.3989 18.4358C23.5055 18.3349 23.6359 18.268 23.7755 18.2427C23.8746 18.1998 23.7656 18.5431 23.7656 18.5431H23.7557Z" stroke="#A37400" stroke-width="0.14" stroke-linecap="round" stroke-linejoin="round"/>
<path d="M23.6863 18.9187C23.6269 18.7701 23.7557 18.5367 23.7557 18.5367L23.7656 18.4943C23.7656 18.4943 23.8746 18.1654 23.7755 18.2397C23.6359 18.2647 23.5055 18.3308 23.3989 18.4306C23.3494 18.5473 23.4188 18.6428 23.3494 18.7171C23.28 18.7914 23.3395 19.0354 23.4088 19.1733C23.4782 19.3112 23.5278 19.3431 23.5377 19.4173C23.5476 19.4916 23.4386 19.5765 23.3197 20.0327C23.3031 20.0961 23.3002 20.1626 23.3112 20.2273C23.3222 20.292 23.3467 20.3533 23.3829 20.4064C23.4192 20.4595 23.4662 20.5031 23.5205 20.5339C23.5747 20.5648 23.6348 20.582 23.6962 20.5844C23.6656 20.4556 23.6656 20.3207 23.6962 20.1919C23.726 19.9478 23.835 19.969 23.835 19.7781C23.8427 19.6438 23.8427 19.5092 23.835 19.3749C23.8548 19.2582 23.7755 19.2688 23.7755 19.1733C23.7519 19.0861 23.7221 19.001 23.6863 18.9187Z" fill="#FFF381"/>
<path fill-rule="evenodd" clip-rule="evenodd" d="M26.485 33.0271C26.4109 33.0391 26.3411 33.0674 26.2819 33.1094C26.2226 33.1514 26.1757 33.2058 26.1452 33.2679L25.7324 33.9248C25.7324 33.9904 25.7324 37.0776 25.7324 37.0776C25.7551 37.1602 25.8059 37.2342 25.8778 37.2892C25.9497 37.3442 26.039 37.3775 26.133 37.3842C26.4729 37.3842 27.7961 37.3842 27.7961 37.3842C27.8362 37.3583 27.8685 37.3236 27.8897 37.2834C27.9109 37.2431 27.9205 37.1987 27.9175 37.1543C27.9175 37.0119 27.8446 33.87 27.8446 33.87L28.1481 33.2241C28.159 33.1992 28.1625 33.1721 28.1582 33.1455C28.1538 33.119 28.1418 33.0939 28.1234 33.0729C28.105 33.0518 28.0807 33.0355 28.0531 33.0255C28.0255 33.0156 27.9955 33.0123 27.966 33.0161L26.485 33.0271Z" fill="#1A1A18"/>
<path fill-rule="evenodd" clip-rule="evenodd" d="M26.4864 33.0156C26.4121 33.0277 26.3422 33.056 26.2829 33.0981C26.2235 33.1402 26.1765 33.1948 26.1459 33.2571L25.7324 33.9157C25.7324 33.9815 25.7324 37.0768 25.7324 37.0768C25.7551 37.1596 25.8061 37.2338 25.8781 37.289C25.9501 37.3441 26.0396 37.3774 26.1337 37.3842C26.4743 37.3842 27.7998 37.3842 27.7998 37.3842C27.8401 37.3582 27.8724 37.3234 27.8937 37.2831C27.9149 37.2428 27.9245 37.1982 27.9215 37.1537C27.9215 37.011 27.8485 33.8608 27.8485 33.8608L28.1525 33.2132C28.1608 33.1888 28.1622 33.1629 28.1566 33.1379C28.151 33.1129 28.1386 33.0895 28.1205 33.0699C28.1024 33.0503 28.0792 33.035 28.0529 33.0256C28.0267 33.0161 27.9982 33.0127 27.9701 33.0156H26.4864Z" fill="#D7B46A"/>
<path fill-rule="evenodd" clip-rule="evenodd" d="M26.8225 33.9874H27.0692C27.101 33.9929 27.1304 34.015 27.1522 34.0496C27.1741 34.0842 27.187 34.1292 27.1886 34.1767V36.7431C27.1888 36.7654 27.1857 36.7875 27.1795 36.8079C27.1734 36.8283 27.1643 36.8464 27.1529 36.8611C27.1416 36.8757 27.1282 36.8865 27.1137 36.8927C27.0993 36.8988 27.0841 36.9003 27.0692 36.8968H26.8225C26.7908 36.8913 26.7614 36.8693 26.7395 36.8346C26.7177 36.8 26.7048 36.755 26.7031 36.7076V34.1412C26.703 34.1188 26.7061 34.0967 26.7122 34.0763C26.7184 34.0559 26.7275 34.0378 26.7388 34.0232C26.7502 34.0085 26.7636 33.9977 26.778 33.9916C26.7925 33.9854 26.8077 33.984 26.8225 33.9874Z" fill="#1A1A18"/>
<path fill-rule="evenodd" clip-rule="evenodd" d="M26.8225 33.9874H27.0692C27.101 33.9929 27.1304 34.015 27.1522 34.0496C27.1741 34.0842 27.187 34.1292 27.1886 34.1767V36.7431C27.1888 36.7654 27.1857 36.7875 27.1795 36.8079C27.1734 36.8283 27.1643 36.8464 27.1529 36.8611C27.1416 36.8757 27.1282 36.8865 27.1137 36.8927C27.0993 36.8988 27.0841 36.9003 27.0692 36.8968H26.8225C26.7908 36.8913 26.7614 36.8693 26.7395 36.8346C26.7177 36.8 26.7048 36.755 26.7031 36.7076V34.1412C26.703 34.1188 26.7061 34.0967 26.7122 34.0763C26.7184 34.0559 26.7275 34.0378 26.7388 34.0232C26.7502 34.0085 26.7636 33.9977 26.778 33.9916C26.7925 33.9854 26.8077 33.984 26.8225 33.9874Z" fill="#9C0A0F"/>
<path fill-rule="evenodd" clip-rule="evenodd" d="M13.3757 33.0271C13.3015 33.0391 13.2318 33.0674 13.1725 33.1094C13.1133 33.1514 13.0663 33.2058 13.0358 33.2679L12.623 33.9248C12.623 33.9904 12.623 37.0776 12.623 37.0776C12.6457 37.1602 12.6966 37.2342 12.7685 37.2892C12.8404 37.3442 12.9296 37.3775 13.0236 37.3842C13.3635 37.3842 14.6867 37.3842 14.6867 37.3842C14.7269 37.3583 14.7591 37.3236 14.7803 37.2834C14.8016 37.2431 14.8111 37.1987 14.8081 37.1543C14.8081 37.001 14.7352 33.87 14.7352 33.87L15.0387 33.2241C15.0496 33.1992 15.0531 33.1721 15.0488 33.1455C15.0444 33.119 15.0325 33.0939 15.014 33.0729C14.9956 33.0518 14.9714 33.0355 14.9437 33.0255C14.9161 33.0156 14.8861 33.0123 14.8566 33.0161L13.3757 33.0271Z" fill="#1A1A18"/>
<path fill-rule="evenodd" clip-rule="evenodd" d="M13.3757 32.5429C13.3015 32.5563 13.2318 32.5877 13.1725 32.6344C13.1133 32.681 13.0663 32.7415 13.0358 32.8105L12.623 33.5404C12.623 33.6133 12.623 37.0436 12.623 37.0436C12.6457 37.1353 12.6966 37.2175 12.7685 37.2787C12.8404 37.3398 12.9296 37.3767 13.0236 37.3841C13.3635 37.3841 14.6867 37.3841 14.6867 37.3841C14.7269 37.3554 14.7591 37.3168 14.7803 37.2721C14.8016 37.2275 14.8111 37.1781 14.8081 37.1287C14.8081 36.9584 14.7352 33.4795 14.7352 33.4795L15.0387 32.7619C15.0496 32.7341 15.0531 32.704 15.0488 32.6745C15.0444 32.6451 15.0325 32.6172 15.014 32.5938C14.9956 32.5704 14.9714 32.5523 14.9437 32.5412C14.9161 32.5302 14.8861 32.5265 14.8566 32.5308L13.3757 32.5429Z" fill="#D7B46A"/>
<path fill-rule="evenodd" clip-rule="evenodd" d="M13.3472 33.9859H13.8406C13.904 33.9859 13.9647 34.0015 14.0095 34.0293C14.0543 34.057 14.0794 34.0947 14.0794 34.1339V36.2747C14.0795 36.2937 14.0732 36.3125 14.0611 36.3299C14.0489 36.3473 14.031 36.363 14.0086 36.376C13.9862 36.389 13.9597 36.3989 13.9308 36.4052C13.9019 36.4116 13.8712 36.4141 13.8406 36.4128H13.3472C13.2838 36.4128 13.2231 36.3972 13.1783 36.3694C13.1336 36.3417 13.1084 36.3041 13.1084 36.2648V34.1241C13.1083 34.1051 13.1146 34.0863 13.1267 34.0688C13.1389 34.0514 13.1568 34.0357 13.1792 34.0227C13.2016 34.0098 13.2281 33.9998 13.257 33.9935C13.2859 33.9872 13.3166 33.9846 13.3472 33.9859Z" fill="#1A1A18"/>
<path fill-rule="evenodd" clip-rule="evenodd" d="M13.3472 33.9859H13.8406C13.904 33.9859 13.9647 34.0015 14.0095 34.0293C14.0543 34.057 14.0794 34.0947 14.0794 34.1339V36.2747C14.0795 36.2937 14.0732 36.3125 14.0611 36.3299C14.0489 36.3473 14.031 36.363 14.0086 36.376C13.9862 36.389 13.9597 36.3989 13.9308 36.4052C13.9019 36.4116 13.8712 36.4141 13.8406 36.4128H13.3472C13.2838 36.4128 13.2231 36.3972 13.1783 36.3694C13.1336 36.3417 13.1084 36.3041 13.1084 36.2648V34.1241C13.1083 34.1051 13.1146 34.0863 13.1267 34.0688C13.1389 34.0514 13.1568 34.0357 13.1792 34.0227C13.2016 34.0098 13.2281 33.9998 13.257 33.9935C13.2859 33.9872 13.3166 33.9846 13.3472 33.9859Z" fill="#9C0A0F"/>
<path fill-rule="evenodd" clip-rule="evenodd" d="M19.5103 23.2428C19.9684 23.1543 20.3148 23.2428 20.7729 22.4905C20.9448 22.2999 21.1017 22.0965 21.2423 21.8821C21.354 21.7604 21.5216 21.9706 21.8568 22.402C22.058 22.579 22.5161 23.8292 22.4602 22.8114C22.7731 23.1101 23.22 23.3313 23.8681 23.9177L25.8459 23.6853C26.3599 23.3977 26.8516 23.4088 27.3432 22.579C27.4617 22.3808 27.5555 22.169 27.6226 21.9485C27.9243 21.8489 28.2483 22.1476 28.4606 22.7782C28.6594 23.2253 28.8832 23.6611 29.1311 24.0836C28.8517 24.6036 28.5165 25.1124 28.2372 25.6324L24.6503 25.4222L21.6557 25.732L19.4209 24.1278C19.4209 23.8181 19.5103 23.5194 19.5662 23.2096" fill="#1A1A18"/>
<path fill-rule="evenodd" clip-rule="evenodd" d="M23.3628 23.8018L23.4858 23.8583H23.6313H23.8662H23.9893H24.1235H24.2466H24.5039H24.571H25.3764H25.4995H25.589H25.6673H25.7232C25.9937 23.5598 26.1961 23.205 26.3161 22.819H26.4056C26.551 22.9884 26.5063 23.4629 26.6294 23.7453C26.7524 24.0277 27.0433 24.1407 27.1887 24.4118C25.2534 28.1397 19.6599 24.9653 17.4785 24.8072L17.8701 24.2875V23.5871H18.2728V23.5307V23.4629V23.4064V23.3499C18.5154 23.9051 18.7919 24.4447 19.1006 24.9653C19.275 25.1248 19.4914 25.2299 19.7236 25.268C19.9559 25.3061 20.1941 25.2755 20.4095 25.18" fill="white"/>
<path fill-rule="evenodd" clip-rule="evenodd" d="M19.4865 22.3334C19.8253 22.9629 19.8472 23.317 21.8475 24.0251C22.6706 24.1847 23.5281 24.1161 24.307 23.8284L25.247 23.494L25.1596 24.4185C24.3889 24.7873 23.5591 25.0461 22.7001 25.1856C22.0055 25.3019 21.289 25.251 20.6233 25.0381L19.4865 23.8284C19.4865 23.3465 19.4865 22.8449 19.4209 22.3826" fill="#1A1A18"/>
<path fill-rule="evenodd" clip-rule="evenodd" d="M25.1477 23.7247H25.2434V23.7981V23.9328C25.2482 23.957 25.2482 23.982 25.2434 24.0062V24.1286C25.2434 24.1286 25.2434 24.1286 25.2434 24.1898V24.2755H25.1716H25.0999H25.0401H24.9684H24.9086H24.8369H24.7532H24.6815H24.6097H24.538H24.4663H24.3945H24.3108H24.2391H24.1554C24.1554 24.2755 24.1554 24.2755 24.0837 24.2755H24.0119H23.9282H23.8565H23.7728H23.6891H23.6054H23.5217H23.4381H23.3544H23.2707H23.187H23.1033H23.0196H22.9359H22.8403H22.7685H22.6968H22.637H21.5012H21.4295H21.298H21.2262H21.1664H21.0947H21.0349H20.9752H20.9034H20.8436L20.736 24.1409L20.6404 24.0062L20.5208 23.8838L19.4209 23.7981V23.7002V23.3086V22.9414V22.819V22.8802L19.4807 22.9414V23.0026L19.5524 23.0638H19.6241L19.6959 23.125L19.7676 23.1862C19.7993 23.1807 19.8316 23.1807 19.8633 23.1862L19.9589 23.2474H20.0665L20.1861 23.3208L20.3056 23.382H20.4371L20.5806 23.4554L20.736 23.5166L20.8915 23.5901H21.0708L21.2501 23.6635L21.4534 23.7369H21.561H21.6566H21.7523H21.8479H21.9436H22.0273H23.1033H23.175H23.2707H23.3424H23.4261H23.4978H23.5815H23.6533H23.713H23.7967H23.8685H23.9522H24.0239H24.0956H24.1674H24.251H24.3467H24.4423H24.538H24.6336" fill="white"/>
<path fill-rule="evenodd" clip-rule="evenodd" d="M19.1147 21.9618C18.3446 22.9613 17.9393 24.19 17.965 25.4472C17.9556 26.6983 18.4004 27.911 19.2182 28.8643C20.6314 29.2693 22.0846 29.5213 23.5526 29.616C25.0534 29.5187 26.5403 29.2707 27.9905 28.8757C29.7495 26.3015 29.0827 25.1397 28.5538 24.1259C28.3675 23.8865 28.1467 23.6754 27.8985 23.4995C27.2032 23.1496 26.6214 22.6127 26.2199 21.9504C26.0935 21.8479 25.7486 21.7454 25.6221 22.0529C25.4611 22.7465 25.1469 23.3961 24.7023 23.9551C24.4039 24.3117 24.0241 24.5928 23.5942 24.775C23.1644 24.9572 22.6969 25.0354 22.2304 25.003C21.2992 24.741 20.1495 24.6385 19.7241 23.2717C19.4137 21.6543 19.2412 21.8365 19.0802 21.939" fill="#1A1A18"/>
<path fill-rule="evenodd" clip-rule="evenodd" d="M23.5346 20.8769C23.8717 20.8748 24.2019 20.9587 24.4833 21.1179C24.7646 21.2771 24.9843 21.5045 25.1145 21.7711C25.2446 22.0377 25.2793 22.3314 25.2142 22.6149C25.149 22.8984 24.9869 23.1589 24.7485 23.3633C24.5101 23.5676 24.2062 23.7065 23.8754 23.7624C23.5446 23.8183 23.202 23.7885 22.8909 23.677C22.5799 23.5654 22.3147 23.3771 22.1289 23.1359C21.9431 22.8948 21.8452 22.6117 21.8477 22.3228C21.8509 21.9401 22.0297 21.574 22.3454 21.3034C22.661 21.0329 23.0882 20.8797 23.5346 20.8769Z" fill="white"/>
<path d="M28.1817 24.665C28.4134 26.383 28.1817 28.1241 28.4134 30.0843C28.4134 30.4302 28.2259 30.7415 28.9652 30.8568C29.6602 30.9676 30.3491 31.1177 31.0286 31.3065C31.265 31.3604 31.4806 31.4869 31.6477 31.6697C31.8148 31.8526 31.9258 32.0835 31.9665 32.3327C31.9665 32.817 31.6465 34.1315 31.9665 34.5005C32.1253 34.6729 32.3215 34.8028 32.5386 34.8791C32.7556 34.9554 32.9871 34.9758 33.2134 34.9386C33.5933 34.9388 33.969 34.8564 34.3168 34.6965C34.144 34.6337 33.9938 34.517 33.8864 34.3621C33.9833 34.3648 34.0787 34.3379 34.1611 34.2846C34.2434 34.2313 34.309 34.1541 34.3499 34.0623C34.1954 34.0623 34.1071 33.9585 33.9306 33.7395C34.0629 33.7223 34.1865 33.6617 34.2837 33.5664C34.3809 33.4711 34.4466 33.3459 34.4713 33.2091C34.4713 33.2091 33.5113 33.2091 33.3678 32.7594C33.2232 32.0779 33.1128 31.3889 33.0368 30.6954C32.984 30.4371 32.8427 30.2079 32.6395 30.0508C32.4363 29.8936 32.1852 29.8195 31.9334 29.8422C31.2832 29.809 30.6371 29.7164 30.0024 29.5654C29.8266 29.5203 29.6564 29.4546 29.4948 29.3694V29.012C29.4948 29.012 29.3183 26.9134 29.3514 26.3138C29.4363 25.4193 29.2386 24.5202 28.7886 23.7541C28.5265 23.4498 28.2043 23.2087 27.8442 23.0474C27.4841 22.8861 27.0947 22.8086 26.7031 22.8201C27.2879 23.4427 28.0383 23.5696 28.1817 24.665Z" stroke="#C0932E" stroke-width="0.14" stroke-linecap="round" stroke-linejoin="round"/>
<path fill-rule="evenodd" clip-rule="evenodd" d="M28.1817 24.5911C28.4134 26.2404 28.1817 27.9119 28.4134 29.7937C28.4134 30.1258 28.2259 30.4246 28.9652 30.5353C29.6603 30.6416 30.3491 30.7857 31.0286 30.967C31.265 31.0188 31.4806 31.1402 31.6477 31.3157C31.8148 31.4913 31.9258 31.7129 31.9665 31.9522C31.9665 32.406 31.6465 33.679 31.9665 34.0332C32.1253 34.1988 32.3215 34.3235 32.5386 34.3967C32.7556 34.4699 32.9871 34.4895 33.2134 34.4539C33.5933 34.454 33.969 34.3749 34.3168 34.2214C34.144 34.1611 33.9938 34.0491 33.8864 33.9004C33.9833 33.903 34.0787 33.8771 34.1611 33.826C34.2434 33.7748 34.309 33.7007 34.3499 33.6126C34.1954 33.6126 34.1071 33.513 33.9306 33.3026C34.0629 33.2862 34.1865 33.228 34.2837 33.1365C34.3809 33.045 34.4466 32.9249 34.4713 32.7935C34.4713 32.7935 33.5002 32.7935 33.3678 32.3618C33.2231 31.7075 33.1127 31.0462 33.0368 30.3804C32.984 30.1324 32.8427 29.9123 32.6395 29.7615C32.4363 29.6107 32.1852 29.5394 31.9334 29.5612C31.2832 29.5295 30.6371 29.4406 30.0024 29.2956C29.8266 29.2523 29.6564 29.1892 29.4948 29.1074V28.7642C29.4948 28.7642 29.3183 26.7496 29.3514 26.174C29.4363 25.3152 29.2386 24.4522 28.7886 23.7167C28.5265 23.4245 28.2043 23.1931 27.8442 23.0382C27.4841 22.8834 27.0947 22.809 26.7031 22.82C27.3652 23.3846 28.0714 23.5063 28.2148 24.5579" fill="#FFF7B2"/>
<path d="M18.815 35.6018C18.852 35.9758 18.8213 36.3532 18.7242 36.7166C18.5262 37.1492 18.2705 37.554 17.9639 37.9204C18.7242 37.5637 18.622 37.7644 19.2802 37.3408C19.3812 37.4122 19.4658 37.5037 19.5283 37.6093C19.5909 37.7149 19.6301 37.8324 19.6434 37.9539C19.893 37.7867 20.3015 37.586 20.5512 37.4188C20.6911 37.5294 20.7993 37.674 20.8649 37.8382C20.9306 38.0024 20.9515 38.1806 20.9257 38.3552C22.0037 37.7532 21.4477 36.0031 21.5271 35.0779C21.5193 34.6274 21.6042 34.18 21.7768 33.7626C21.9538 33.4457 22.091 33.1088 22.1853 32.7593C22.2185 32.5231 22.2639 32.2887 22.3215 32.0571C22.3215 31.7784 22.3215 31.0427 22.3215 30.8309C22.3807 30.6815 22.4694 30.5452 22.5825 30.4296C22.8415 29.8999 23.0065 29.3307 23.0704 28.7464C23.0704 28.2225 22.8208 27.0521 22.8548 26.7845C22.8924 26.335 22.9916 25.8926 23.1499 25.4692C23.4336 25.0233 23.3087 24.9453 22.9229 24.8338C22.7487 24.7726 22.5631 24.7495 22.3789 24.7662C22.1947 24.7828 22.0164 24.8387 21.8565 24.9299C21.6966 25.0212 21.5588 25.1457 21.453 25.2947C21.3471 25.4436 21.2756 25.6135 21.2434 25.7924C21.1309 26.1537 21.0736 26.5294 21.0732 26.9071C21.1124 27.6521 21.0744 28.3991 20.9597 29.1366C20.5702 29.6405 20.2709 30.2059 20.0746 30.8086C20.1096 31.4681 19.981 32.126 19.7001 32.7259C19.4673 32.8926 19.2753 33.1082 19.1379 33.3569C19.0005 33.6056 18.9212 33.8813 18.9057 34.1639C18.8377 34.9888 18.815 35.6018 18.815 35.6018Z" stroke="#C0932E" stroke-width="0.14" stroke-linecap="round" stroke-linejoin="round"/>
<path fill-rule="evenodd" clip-rule="evenodd" d="M18.815 35.5996C18.8523 35.9738 18.8215 36.3516 18.7242 36.7152C18.5262 37.1482 18.2705 37.5534 17.9639 37.9201C18.7242 37.5631 18.622 37.7639 19.2802 37.34C19.3812 37.4114 19.4658 37.503 19.5283 37.6087C19.5909 37.7144 19.6301 37.8319 19.6434 37.9535C19.893 37.7862 20.3015 37.5854 20.5512 37.418C20.6911 37.5287 20.7993 37.6734 20.8649 37.8378C20.9306 38.0021 20.9515 38.1804 20.9257 38.3552C22.0037 37.7527 21.4477 36.0012 21.5271 35.0752C21.5193 34.6244 21.6042 34.1766 21.7768 33.7588C21.9538 33.4416 22.091 33.1045 22.1853 32.7548C22.2184 32.5183 22.2638 32.2837 22.3215 32.0519C22.3215 31.773 22.3215 31.0367 22.3215 30.8247C22.3809 30.6754 22.4696 30.5389 22.5825 30.4231C22.8402 29.8965 23.0052 29.3306 23.0704 28.7497C23.0704 28.2253 22.8208 27.0539 22.8548 26.7862C22.8924 26.3363 22.9916 25.8935 23.1499 25.4698C23.4336 25.0235 23.3087 24.9454 22.9229 24.8339C22.7487 24.7726 22.5631 24.7495 22.3789 24.7662C22.1947 24.7828 22.0164 24.8387 21.8565 24.9301C21.6966 25.0214 21.5588 25.146 21.453 25.2951C21.3471 25.4442 21.2756 25.6142 21.2434 25.7933C21.1309 26.1549 21.0736 26.5308 21.0732 26.9089C21.1124 27.6545 21.0744 28.4021 20.9597 29.1401C20.5702 29.6445 20.2709 30.2104 20.0746 30.8136C20.1096 31.4736 19.981 32.132 19.7001 32.7324C19.4887 32.8893 19.3122 33.0869 19.1814 33.3133C19.0507 33.5397 18.9684 33.7901 18.9398 34.0489C18.8377 34.986 18.815 35.5996 18.815 35.5996Z" fill="#FFF7B2"/>
<path d="M31.0603 49.8319L31.8689 51.0018V51.072L32.5294 50.5923L32.4497 50.4754L32.3814 50.5339L32.0055 50.8029L31.6525 50.2882L32.0283 50.0191H32.0966L32.1308 49.9021L32.0625 49.9606L31.6867 50.2297L31.345 49.7266L31.7322 49.4575H31.8005L31.7322 49.3523L31.0603 49.8319ZM30.5478 51.2943L30.3884 50.5455L30.9806 51.0252L30.5478 51.2943ZM30.5478 51.4113L31.0375 51.0954L31.3906 51.3879L31.6525 51.2241H31.5842L30.377 50.2531L30.1834 50.3701L30.5136 51.9026C30.516 51.926 30.516 51.9495 30.5136 51.9728L30.6389 51.8909V51.8324L30.5478 51.4113ZM29.409 50.8029V50.8731L30.0126 52.1834V52.2536L30.2631 52.1249V52.0547L29.7165 50.7561C29.7132 50.7329 29.7132 50.7092 29.7165 50.6859L29.409 50.8029ZM28.2701 51.3177V51.4581H28.3612L28.6801 51.3294L29.1926 52.6163C29.1956 52.6396 29.1956 52.6632 29.1926 52.6865L29.4545 52.5812V52.511L28.942 51.2241L29.2609 51.072H29.352V50.9316L28.2701 51.3177ZM27.1996 52.0196L28.4182 52.9204L28.6345 52.8503C28.6292 52.8272 28.6292 52.8031 28.6345 52.7801L28.179 51.3996C28.1743 51.3725 28.1743 51.3448 28.179 51.3177H28.0423V51.3879L28.4182 52.5578L27.2793 51.6804L27.0402 51.7622V51.8324L27.4957 53.2129C27.4982 53.2362 27.4982 53.2598 27.4957 53.2831H27.6324V53.2129L27.1996 52.0196ZM26.0608 52.0196C26.064 52.0429 26.064 52.0665 26.0608 52.0898L26.2999 53.5171C26.3038 53.5442 26.3038 53.5718 26.2999 53.599L27.0971 53.4352V53.2948H27.0174L26.5732 53.3884L26.448 52.7684L26.8921 52.6748H26.9718V52.5461H26.8921L26.448 52.6397L26.2999 52.0781L26.7555 51.9845H26.8238V51.8558L26.0608 52.0196ZM25.4458 52.1366C25.4485 52.1599 25.4485 52.1835 25.4458 52.2068L25.6394 53.6458C25.6428 53.673 25.6428 53.7005 25.6394 53.7277H25.9127C25.9094 53.7044 25.9094 53.6808 25.9127 53.6575L25.7191 52.2185C25.7142 52.1914 25.7142 52.1637 25.7191 52.1366H25.4458ZM24.5803 53.0257V52.3589H24.7397C24.7813 52.3539 24.8236 52.3581 24.8635 52.3711C24.9035 52.3842 24.9403 52.4058 24.9715 52.4346C25.0027 52.4633 25.0277 52.4986 25.0446 52.538C25.0616 52.5773 25.0702 52.62 25.07 52.6631C25.0781 52.7224 25.0708 52.7829 25.0488 52.8384C25.0268 52.8938 24.9909 52.9423 24.9447 52.9789C24.885 52.9953 24.8222 52.9953 24.7625 52.9789L24.5803 53.0257ZM24.5803 53.1427H24.7511C25.1041 53.1427 25.3091 52.9204 25.2863 52.628C25.2636 52.3355 25.0586 52.1951 24.7511 52.2302H24.25C24.2526 52.2535 24.2526 52.2771 24.25 52.3004L24.3525 53.7511C24.3558 53.7783 24.3558 53.8058 24.3525 53.833H24.6372C24.6331 53.8058 24.6331 53.7782 24.6372 53.7511L24.5803 53.1427ZM23.0998 53.2597L23.3389 52.5344L23.6008 53.2597H23.0998ZM23.0998 53.3767H23.6806L23.84 53.8096C23.8446 53.8327 23.8446 53.8566 23.84 53.8798H24.0222V53.8096L23.4756 52.3355H23.2478L22.7581 53.8213V53.8915H22.8834C22.8795 53.8682 22.8795 53.8445 22.8834 53.8213L23.0998 53.3767ZM21.6876 53.6458C21.8094 53.7434 21.9553 53.8041 22.109 53.8213C22.224 53.8574 22.3469 53.8574 22.462 53.8213C22.5243 53.7826 22.5772 53.7299 22.6167 53.667C22.6562 53.6042 22.6812 53.5329 22.6898 53.4586C22.721 53.3678 22.721 53.2687 22.6898 53.1778C22.6207 53.0732 22.5266 52.9886 22.4164 52.9321C22.1659 52.7801 22.1203 52.7099 22.1317 52.5812C22.1358 52.5476 22.1465 52.5152 22.1633 52.4861C22.1801 52.457 22.2026 52.4318 22.2293 52.412C22.2561 52.3923 22.2865 52.3784 22.3187 52.3712C22.3509 52.3641 22.3842 52.3639 22.4164 52.3706C22.5338 52.3887 22.6419 52.4463 22.7239 52.5344L22.7923 52.3706C22.686 52.2999 22.5651 52.2558 22.4392 52.2419C22.3778 52.2247 22.3135 52.2208 22.2505 52.2307C22.1875 52.2406 22.1272 52.2639 22.0736 52.2992C22.0199 52.3344 21.974 52.3809 21.9389 52.4355C21.9038 52.4901 21.8803 52.5517 21.8698 52.6163C21.8698 52.8152 21.9381 52.9438 22.1887 53.1076L22.4051 53.2597C22.4385 53.2874 22.4644 53.3235 22.4804 53.3645C22.4963 53.4054 22.5018 53.4499 22.4962 53.4937C22.4908 53.532 22.4778 53.5688 22.4579 53.6016C22.4381 53.6345 22.4118 53.6629 22.3808 53.6848C22.3498 53.7068 22.3147 53.7219 22.2777 53.7293C22.2407 53.7367 22.2027 53.7361 22.1659 53.7277C22.095 53.7186 22.0269 53.6941 21.966 53.6558C21.9051 53.6174 21.8529 53.5662 21.8129 53.5054L21.6876 53.6458ZM19.8996 53.3065C20.0067 53.4153 20.1405 53.4921 20.2868 53.5288C20.4054 53.5674 20.5327 53.5674 20.6512 53.5288C20.7193 53.498 20.7795 53.4513 20.827 53.3924C20.8744 53.3335 20.9078 53.264 20.9246 53.1895C20.9549 53.0985 20.9549 52.9997 20.9246 52.9087C20.8696 52.7956 20.7872 52.6989 20.6854 52.628C20.4576 52.4408 20.4121 52.3706 20.4462 52.2419C20.4553 52.21 20.4705 52.1802 20.4911 52.1545C20.5116 52.1288 20.5371 52.1076 20.5658 52.0923C20.5946 52.077 20.626 52.0679 20.6583 52.0654C20.6907 52.063 20.7231 52.0673 20.7537 52.0781C20.869 52.1135 20.9693 52.1876 21.0384 52.2887L21.1295 52.1366C21.0342 52.0526 20.9211 51.9925 20.7993 51.9611C20.7404 51.9374 20.6774 51.9265 20.6142 51.9292C20.551 51.9319 20.489 51.948 20.4323 51.9766C20.3755 52.0052 20.3251 52.0457 20.2844 52.0954C20.2437 52.1451 20.2135 52.203 20.1957 52.2653C20.1957 52.4525 20.1957 52.6046 20.4462 52.7918L20.6398 52.9672C20.6691 52.9997 20.6897 53.0394 20.6997 53.0824C20.7096 53.1254 20.7086 53.1704 20.6968 53.2129C20.6877 53.2507 20.6712 53.2861 20.6481 53.3169C20.625 53.3478 20.596 53.3733 20.5628 53.392C20.5296 53.4107 20.493 53.4221 20.4553 53.4256C20.4176 53.429 20.3796 53.4243 20.3437 53.4118C20.2758 53.3948 20.2122 53.363 20.1571 53.3186C20.1021 53.2742 20.057 53.2182 20.0249 53.1544L19.8996 53.3065ZM18.9771 51.4581C18.9799 51.4853 18.9799 51.5127 18.9771 51.54V53.0842C18.9804 53.1075 18.9804 53.1311 18.9771 53.1544L19.2049 53.2246L20.1046 51.9728H19.9679L19.1935 53.0608V51.7272L18.9771 51.4581ZM17.565 51.2124L17.4511 52.4525L17.6561 52.5461L18.4988 51.6219L18.1685 52.7918L18.4191 52.9087C18.4177 52.8854 18.4177 52.8619 18.4191 52.8386L18.8291 51.3996L18.6127 51.2943L17.7244 52.2536L17.8497 50.9433V50.955L17.6333 50.8614L16.8475 52.1015V52.16L16.9727 52.2185L17.565 51.2124ZM16.6539 50.3935C16.9272 50.5689 16.95 50.8614 16.7222 51.2592C16.4944 51.657 16.2211 51.7622 15.9592 51.5985C15.6972 51.4347 15.6517 51.1305 15.8908 50.721C16.13 50.3116 16.2781 50.2414 16.5628 50.4052L16.6539 50.3935ZM16.7222 50.2882C16.5869 50.2032 16.4304 50.1609 16.2719 50.1667C16.1134 50.1724 15.9601 50.2258 15.831 50.3204C15.7019 50.4149 15.6027 50.5463 15.5457 50.6983C15.4888 50.8503 15.4766 51.0162 15.5106 51.1752C15.5447 51.3343 15.6235 51.4796 15.7373 51.593C15.8511 51.7064 15.9949 51.7829 16.1507 51.8131C16.3065 51.8432 16.4675 51.8256 16.6137 51.7625C16.7598 51.6994 16.8847 51.5935 16.9727 51.4581C17.0444 51.364 17.0927 51.2535 17.1135 51.136C17.1343 51.0186 17.1271 50.8977 17.0923 50.7837C17.0576 50.6698 16.9964 50.5662 16.9141 50.4819C16.8318 50.3976 16.7307 50.3352 16.6197 50.2999L16.7222 50.2882ZM14.2851 50.3701L14.9114 49.3172L15.0481 49.4224C15.1122 49.4719 15.1651 49.535 15.2033 49.6074C15.2415 49.6798 15.264 49.7598 15.2694 49.8419C15.2748 49.9241 15.2629 50.0064 15.2346 50.0835C15.2062 50.1605 15.162 50.2303 15.105 50.2882C14.8545 50.6274 14.547 50.7093 14.2965 50.5105L14.2851 50.3701ZM14.9342 49.0364V49.1066L14.0801 50.2765L14.5128 50.6157C14.5935 50.6787 14.686 50.7238 14.7846 50.748C14.8831 50.7722 14.9855 50.775 15.0851 50.7563C15.1848 50.7376 15.2795 50.6977 15.3634 50.6393C15.4472 50.5808 15.5182 50.5051 15.572 50.4169C15.6487 50.3343 15.706 50.2348 15.7395 50.1259C15.773 50.0171 15.7819 49.9018 15.7654 49.7889C15.7489 49.6761 15.7075 49.5685 15.6444 49.4746C15.5813 49.3807 15.4981 49.3028 15.4011 49.247L14.9342 49.0364Z" fill="#1A1A18"/>
<path d="M34.4885 45.7964C34.24 45.8711 34.0165 46.012 33.8421 46.204C33.6946 46.3523 33.5958 46.5418 33.5586 46.7475C33.5473 46.8731 33.565 46.9997 33.6102 47.1174C33.6554 47.2352 33.727 47.3411 33.8195 47.427C33.9371 47.538 34.0891 47.6059 34.2504 47.6195C34.4638 47.624 34.6748 47.5733 34.8628 47.4722C35.3164 47.2797 35.4638 47.2684 35.6226 47.4722C35.6624 47.5103 35.694 47.556 35.7157 47.6066C35.7373 47.6572 35.7484 47.7117 35.7484 47.7667C35.7484 47.8217 35.7373 47.8761 35.7157 47.9267C35.694 47.9773 35.6624 48.023 35.6226 48.0611C35.4803 48.2085 35.2926 48.3042 35.0896 48.3328L35.2483 48.582C35.4478 48.5029 35.6263 48.3789 35.77 48.2196C35.8468 48.1466 35.908 48.0588 35.9499 47.9615C35.9917 47.8641 36.0132 47.7593 36.0132 47.6534C36.0132 47.5475 35.9917 47.4427 35.9499 47.3454C35.908 47.2481 35.8468 47.1602 35.77 47.0872C35.5318 46.8721 35.2597 46.8608 34.7834 47.0872L34.3751 47.2345C34.3058 47.2528 34.2329 47.253 34.1634 47.2352C34.0939 47.2173 34.0301 47.182 33.9782 47.1325C33.9297 47.089 33.8909 47.0358 33.8643 46.9762C33.8377 46.9167 33.824 46.8523 33.824 46.7872C33.824 46.722 33.8377 46.6576 33.8643 46.5981C33.8909 46.5386 33.9297 46.4853 33.9782 46.4418C34.0604 46.3532 34.1606 46.2832 34.2721 46.2363C34.3835 46.1894 34.5037 46.1668 34.6246 46.17L34.4885 45.7964ZM36.9267 46.7702L36.8133 46.7022L34.9535 45.1509L34.8628 45.0603L34.5566 45.4227L34.67 45.4906L36.5298 47.042L36.6205 47.1325L36.9267 46.7702ZM36.1556 43.5203C35.9183 43.6261 35.7144 43.7944 35.5659 44.0072C35.4408 44.1746 35.3696 44.376 35.3617 44.5847C35.3665 44.7121 35.4008 44.8366 35.4618 44.9486C35.5227 45.0606 35.6088 45.1569 35.7133 45.2302C35.8446 45.3256 36.0046 45.3736 36.1669 45.3661C36.3798 45.3428 36.583 45.2648 36.7566 45.1396C37.1875 44.8905 37.3236 44.8565 37.505 44.9924C37.5496 45.0256 37.5868 45.0676 37.6145 45.1157C37.6422 45.1638 37.6598 45.217 37.6662 45.2721C37.6725 45.3273 37.6676 45.3831 37.6516 45.4363C37.6356 45.4894 37.6088 45.5387 37.5731 45.5812C37.4499 45.7474 37.274 45.8671 37.0741 45.9209L37.2556 46.1474C37.4457 46.0429 37.6088 45.8956 37.7318 45.7171C37.8026 45.6374 37.8562 45.5441 37.8895 45.443C37.9228 45.3418 37.9351 45.235 37.9255 45.1289C37.9159 45.0229 37.8848 44.9199 37.8339 44.8263C37.7831 44.7327 37.7136 44.6505 37.6298 44.5847C37.369 44.4035 37.0968 44.4262 36.6545 44.6753L36.269 44.8791C36.2062 44.9128 36.1361 44.9305 36.0648 44.9305C35.9936 44.9305 35.9235 44.9128 35.8607 44.8791C35.8077 44.8423 35.763 44.7949 35.7293 44.7398C35.6957 44.6848 35.6739 44.6233 35.6654 44.5594C35.6568 44.4955 35.6617 44.4305 35.6797 44.3686C35.6978 44.3066 35.7285 44.2491 35.77 44.1997C35.8397 44.1022 35.9293 44.0205 36.0329 43.96C36.1365 43.8995 36.2517 43.8615 36.371 43.8487L36.1556 43.5203ZM39.036 42.5804L36.4731 42.8409H36.3597L36.1669 43.1806H36.2803L38.3896 44.3809L38.4916 44.4602L38.605 44.2563H38.4803L36.7339 43.2599L39.2628 43.0334H39.3648L39.5803 42.6597H39.4556L37.3576 41.4594L37.2556 41.3801L37.1422 41.584H37.2669L39.036 42.5804ZM40.3968 40.7687H40.2721L38.0721 39.7722L37.9587 39.7042L37.3803 40.9612L37.5958 41.0631C37.5899 41.0142 37.5899 40.9648 37.5958 40.9159L37.9133 40.2138L38.8659 40.6441L38.537 41.3575C38.5205 41.4021 38.4976 41.4441 38.469 41.4821L38.6617 41.5726C38.6543 41.5276 38.6543 41.4817 38.6617 41.4368L38.9793 40.7347L39.9092 41.1537L39.5803 41.8784C39.5638 41.9161 39.5408 41.9506 39.5123 41.9803L39.705 42.0709L40.3968 40.7687ZM39.7844 38.6964L40.8504 39.0701L40.7597 39.3306C40.7402 39.4002 40.7057 39.4648 40.6587 39.5198C40.6116 39.5748 40.5532 39.6189 40.4874 39.6491C40.4215 39.6792 40.3499 39.6947 40.2775 39.6945C40.2051 39.6942 40.1336 39.6782 40.0679 39.6476C39.9725 39.6227 39.8854 39.5728 39.8157 39.5032C39.7459 39.4335 39.696 39.3466 39.671 39.2513C39.6426 39.1475 39.6426 39.038 39.671 38.9342L39.7844 38.6964ZM39.5916 38.6285L39.5009 38.9003C39.2968 39.4664 39.5009 39.9081 39.9205 40.0326C40.3401 40.1572 40.7257 39.9647 40.9071 39.4551L41.1906 38.6511H41.0659L38.7978 37.8585L38.6844 37.8019L38.5257 38.2548H38.6504L39.5916 38.6285ZM41.5081 37.6773H41.3834L39.1154 36.9526H39.002L38.8545 37.4055H38.9793L41.2473 38.1303H41.3607L41.5081 37.6773ZM42.1432 35.1068H42.0071L39.4556 35.4013H39.3422L39.2514 35.8089H39.3535L41.6216 37.1338L41.7236 37.213V36.9752H41.6216L39.6937 35.8429L41.9618 35.5824H42.0752L42.1432 35.1068ZM42.2453 33.6121C42.2324 33.7337 42.1893 33.8502 42.12 33.951C42.0507 34.0519 41.9574 34.1339 41.8484 34.1896C41.5655 34.2927 41.2605 34.3201 40.9638 34.2689C40.6517 34.244 40.3566 34.1166 40.1246 33.9065C40.0448 33.8261 39.9864 33.7269 39.9547 33.6182C39.923 33.5094 39.919 33.3944 39.9432 33.2837C39.9512 33.1679 39.9875 33.0558 40.0487 32.9572C40.11 32.8585 40.1944 32.7762 40.2947 32.7176C40.576 32.5802 40.894 32.5365 41.202 32.593C41.9504 32.7629 42.302 33.1026 42.2339 33.6574L42.2453 33.6121ZM39.2968 34.4048C39.3681 34.257 39.4476 34.1134 39.5349 33.9745L39.6597 33.782V33.7027C39.6658 33.917 39.7326 34.1251 39.8525 34.3029C39.9728 34.4557 40.1237 34.582 40.2955 34.6736C40.4673 34.7652 40.6562 34.8202 40.8504 34.8351C41.048 34.8699 41.2506 34.8637 41.4457 34.8169C41.6408 34.7702 41.8242 34.6838 41.9844 34.5633C42.2118 34.335 42.3522 34.0347 42.3813 33.714C42.4463 33.368 42.373 33.0103 42.1772 32.7176C41.9192 32.432 41.5629 32.2541 41.1793 32.2193C40.8712 32.1689 40.5551 32.2123 40.2721 32.3439C40.087 32.4602 39.947 32.6359 39.8752 32.8421C39.6574 33.2502 39.3908 33.6305 39.0813 33.9745L39.2968 34.4048ZM42.6989 30.4642H42.5741L40.1587 30.3283H40.0339L39.9659 31.7098H40.204C40.1973 31.6571 40.1973 31.6039 40.204 31.5512V30.7812L41.2587 30.8378V31.6192C41.2663 31.6679 41.2663 31.7176 41.2587 31.7664H41.4741C41.4654 31.7177 41.4654 31.6679 41.4741 31.6192V30.8378H42.4948V31.6305C42.5024 31.6717 42.5024 31.7139 42.4948 31.7551H42.7102L42.6989 30.4642ZM41.4628 28.7316H42.5968V28.9241C42.6028 29.0564 42.5582 29.1859 42.4721 29.2865C42.4145 29.3444 42.3454 29.3895 42.2692 29.4187C42.1929 29.448 42.1114 29.4608 42.0298 29.4564C41.9589 29.4581 41.8884 29.445 41.8228 29.418C41.7572 29.391 41.698 29.3507 41.6489 29.2995C41.5998 29.2484 41.5619 29.1876 41.5377 29.121C41.5135 29.0544 41.5034 28.9835 41.5081 28.9128L41.4628 28.7316ZM41.3154 28.7316L40.1813 29.513H40.0679V30.1018C40.094 30.0607 40.1288 30.0259 40.17 29.9999L41.304 29.1506C41.316 29.2509 41.3388 29.3496 41.3721 29.445C41.4112 29.5735 41.4908 29.6859 41.5991 29.7655C41.7075 29.8451 41.8386 29.8876 41.9731 29.8867C42.0774 29.8871 42.1806 29.8657 42.2762 29.824C42.3717 29.7823 42.4575 29.7211 42.5279 29.6443C42.5984 29.5675 42.652 29.4769 42.6854 29.3783C42.7187 29.2796 42.731 29.1751 42.7215 29.0713V28.256H42.5968H40.1813H40.0566V28.7316H40.1813H41.3154ZM41.0092 26.2971L42.2453 26.6368L41.1112 27.1463L41.0092 26.2971ZM40.8051 26.2971L40.8731 27.2935L40.17 27.5993H40.0566V28.1202L40.1587 28.0522L42.5628 26.9878H42.6535V26.6028H42.5514L40.0339 25.9007H39.9205V26.1499H40.0339L40.8051 26.2971ZM39.671 23.0585C39.5778 23.304 39.5543 23.5705 39.603 23.8285C39.6347 24.0369 39.7297 24.2306 39.8752 24.3834C39.9688 24.4689 40.081 24.5318 40.2029 24.5671C40.3248 24.6024 40.4532 24.6093 40.5782 24.5872C40.74 24.5619 40.8881 24.482 40.9978 24.3607C41.1319 24.1974 41.2217 24.0024 41.2587 23.7945C41.3834 23.3189 41.4628 23.1944 41.6782 23.1604C41.7328 23.1525 41.7884 23.1557 41.8416 23.1698C41.8949 23.1839 41.9448 23.2086 41.9882 23.2425C42.0317 23.2763 42.0678 23.3186 42.0944 23.3668C42.1211 23.415 42.1376 23.468 42.1432 23.5228C42.1725 23.7262 42.1326 23.9335 42.0298 24.1116H42.3246C42.3739 23.9031 42.3739 23.686 42.3246 23.4775C42.2339 22.9566 41.871 22.6622 41.4401 22.7414C41.0092 22.8207 40.9411 23.0132 40.8164 23.5001C40.7804 23.6426 40.7349 23.7826 40.6803 23.9191C40.6516 23.9854 40.6063 24.0432 40.5487 24.0868C40.4911 24.1305 40.4231 24.1585 40.3514 24.1682C40.2877 24.1795 40.2224 24.1773 40.1596 24.1619C40.0968 24.1465 40.0379 24.1182 39.9866 24.0787C39.9354 24.0393 39.893 23.9896 39.8621 23.9329C39.8311 23.8762 39.8124 23.8136 39.8071 23.7492C39.787 23.6296 39.7928 23.5071 39.8241 23.3899C39.8554 23.2727 39.9115 23.1636 39.9886 23.0698L39.671 23.0585ZM41.9391 21.7336H41.8143L39.4442 22.2319H39.3195L39.4215 22.6961H39.5463L41.9164 22.1979H42.0411L41.9391 21.7336ZM39.2741 22.0394L39.5009 21.9828C39.493 21.9416 39.493 21.8993 39.5009 21.8582L39.3081 21.1222L41.5762 20.5333H41.7009L41.5762 20.0691H41.4514L39.104 20.6805H38.9793L39.2741 22.0394ZM39.2741 18.563H40.5556L39.569 19.3783L39.2741 18.563ZM39.07 18.563L39.4102 19.5029L38.8092 19.9898L38.7071 20.0464L38.8886 20.5333L38.9679 20.4314L41.0092 18.7102H41.0886L41.0092 18.3026H38.1741L38.2648 18.5404H38.3782L39.07 18.563ZM39.2401 15.5056L38.004 17.6684V17.7364L38.1628 18.0874C38.1906 18.0566 38.2257 18.0333 38.2648 18.0195L40.5329 17.0343H40.6576L40.5556 16.8192L40.4422 16.8871L38.605 17.7024L39.8752 15.5396C39.8896 15.5071 39.9132 15.4795 39.9432 15.4603L39.7731 15.0753L39.6597 15.1433L37.4483 16.1284H37.3236L37.4257 16.3436L37.5391 16.2756L39.2401 15.5056ZM38.4349 13.3881C38.7298 13.8524 38.5483 14.3053 37.902 14.7243C37.2556 15.1433 36.7679 15.1093 36.4731 14.6564C36.1782 14.2034 36.3483 13.7278 37.0174 13.3088C37.6865 12.8899 38.2081 12.8899 38.503 13.3541L38.4349 13.3881ZM38.605 13.2749C38.521 13.1155 38.4026 12.9767 38.2586 12.8683C38.1145 12.7599 37.9482 12.6846 37.7716 12.6478C37.595 12.611 37.4124 12.6136 37.237 12.6555C37.0615 12.6973 36.8975 12.7774 36.7566 12.8899C36.5979 12.9731 36.4594 13.09 36.3509 13.2325C36.2424 13.375 36.1666 13.5395 36.1287 13.7144C36.0909 13.8894 36.0919 14.0705 36.1318 14.245C36.1717 14.4195 36.2495 14.5831 36.3597 14.7243C36.445 14.8874 36.5661 15.0292 36.7139 15.139C36.8617 15.2489 37.0325 15.324 37.2134 15.3589C37.3943 15.3937 37.5808 15.3873 37.7589 15.3402C37.9371 15.293 38.1022 15.2064 38.2422 15.0867C38.4063 15.008 38.5507 14.8937 38.6651 14.7522C38.7794 14.6108 38.8607 14.4456 38.903 14.2688C38.9454 14.0921 38.9478 13.9081 38.9099 13.7302C38.8721 13.5524 38.7951 13.3853 38.6844 13.2409L38.605 13.2749ZM37.2896 11.2366L37.1989 11.3272L35.3391 12.8219L35.2257 12.8899L35.5205 13.2636L35.6112 13.173L37.5164 11.6782L37.6298 11.6103L37.2896 11.2366ZM35.9514 9.57205L35.7586 9.73058L35.8834 9.84382L36.2463 10.2968L34.4432 11.7575L34.3298 11.8255L34.636 12.1991L34.7267 12.1085L36.5298 10.6478L36.8927 11.1007C36.928 11.1424 36.9585 11.188 36.9834 11.2366L37.1762 11.0781L35.9514 9.57205ZM33.604 9.57205L34.738 9.00587L34.205 10.1382L33.604 9.57205ZM33.4226 9.66264L34.137 10.3534L33.8195 11.0554C33.8029 11.0898 33.7798 11.1205 33.7514 11.146L34.1257 11.5084C34.1394 11.4432 34.1664 11.3815 34.205 11.3272L35.3391 8.9266V8.84734L34.9989 8.60954H34.9195L32.572 9.7419H32.4586L32.6401 9.92308L32.7308 9.85514L33.4226 9.66264ZM32.039 6.79776V9.3569C32.039 9.3569 32.039 9.3569 32.039 9.43617L32.3566 9.66264C32.3479 9.62539 32.3479 9.58665 32.3566 9.5494L33.7854 7.59041C33.8106 7.5555 33.8412 7.52491 33.8762 7.49982L33.6834 7.36394C33.6662 7.40473 33.6433 7.44286 33.6153 7.47718L32.4813 9.09646V6.58261C32.4721 6.54926 32.4721 6.51405 32.4813 6.4807L32.1411 6.23158C32.1236 6.27217 32.1007 6.31025 32.0731 6.34481L30.6555 8.33777L30.5648 8.42836L30.7576 8.56425C30.7746 8.52338 30.7975 8.48523 30.8256 8.45101L32.039 6.79776ZM27.9566 6.79776C28.0989 7.01734 28.299 7.19362 28.5349 7.30732C28.719 7.40553 28.9287 7.44505 29.1359 7.42056C29.2608 7.39463 29.3779 7.34026 29.4782 7.26169C29.5786 7.18313 29.6593 7.08248 29.7143 6.96761C29.7849 6.82362 29.8049 6.66007 29.771 6.50334C29.714 6.29782 29.6046 6.11055 29.4535 5.95981C29.136 5.58613 29.0906 5.45025 29.1813 5.24642C29.2063 5.19708 29.2411 5.15333 29.2836 5.11784C29.326 5.08234 29.3753 5.05584 29.4283 5.03995C29.4813 5.02407 29.5371 5.01912 29.5921 5.02541C29.6471 5.03171 29.7003 5.04911 29.7483 5.07657C29.9302 5.17381 30.074 5.32938 30.1566 5.51819L30.3607 5.30304C30.2275 5.13394 30.0567 4.99823 29.8617 4.90671C29.7705 4.8446 29.6672 4.80247 29.5585 4.78309C29.4498 4.76371 29.3382 4.76751 29.2311 4.79425C29.124 4.82098 29.0238 4.87005 28.937 4.93823C28.8503 5.0064 28.7789 5.09214 28.7277 5.1898C28.5916 5.48422 28.6597 5.74466 28.9772 6.14099C29.0719 6.25202 29.1591 6.3693 29.238 6.49202C29.2738 6.55607 29.2925 6.62818 29.2925 6.70151C29.2925 6.77483 29.2738 6.84695 29.238 6.911C29.2096 6.96875 29.1694 7.01997 29.1201 7.0614C29.0708 7.10284 29.0134 7.13358 28.9515 7.15168C28.8897 7.16978 28.8248 7.17485 28.7608 7.16655C28.6969 7.15826 28.6354 7.13678 28.5803 7.1035C28.4733 7.05073 28.3786 6.97607 28.3024 6.88438C28.2262 6.79269 28.1702 6.68601 28.138 6.57129L27.9566 6.79776ZM26.4937 5.49554L27.2194 4.44244L27.3102 5.72201L26.4937 5.49554ZM26.3803 5.6654L27.3329 5.93716V6.70717C27.3614 6.73248 27.3846 6.76329 27.4009 6.79776L27.8999 6.93364C27.8945 6.89229 27.8945 6.85043 27.8999 6.80908L27.6957 4.182C27.6922 4.15191 27.6922 4.1215 27.6957 4.09141L27.3215 3.9895V4.08009L25.7225 6.2429L25.6432 6.33349L25.8813 6.40143C25.876 6.36767 25.876 6.33328 25.8813 6.29952L26.3803 5.6654ZM24.4524 3.46861V3.70641H24.6225L25.2009 3.797L24.838 6.06172C24.8437 6.10304 24.8437 6.14496 24.838 6.18628L25.3143 6.25422C25.3085 6.2129 25.3085 6.17099 25.3143 6.12966L25.6772 3.86494L26.2555 3.95553H26.4143V3.71773L24.4524 3.46861ZM23.4772 3.46861C23.4824 3.50997 23.4824 3.55181 23.4772 3.59317V6.0051C23.4823 6.04647 23.4823 6.0883 23.4772 6.12966H23.9535C23.9469 6.0884 23.9469 6.04637 23.9535 6.0051V3.59317C23.9525 3.52626 23.9681 3.46015 23.9988 3.40067L23.4772 3.46861ZM21.4132 6.06172C21.6503 6.17188 21.9131 6.21497 22.173 6.18628C22.3806 6.16964 22.5783 6.09069 22.7401 5.95981C22.8305 5.87287 22.9 5.76652 22.9432 5.64881C22.9864 5.5311 23.0023 5.40512 22.9895 5.28039C22.976 5.11929 22.908 4.96757 22.7968 4.85009C22.6426 4.69753 22.451 4.58818 22.2411 4.53303C21.7761 4.3745 21.6627 4.29524 21.6287 4.06876C21.6241 4.01338 21.6308 3.95764 21.6485 3.90496C21.6662 3.85227 21.6945 3.80376 21.7317 3.7624C21.7689 3.72104 21.8141 3.6877 21.8647 3.66444C21.9152 3.64118 21.97 3.62849 22.0256 3.62714C22.2307 3.61388 22.4344 3.6697 22.604 3.78567V3.49126C22.4198 3.42055 22.2227 3.38967 22.0256 3.40067C21.504 3.45729 21.1751 3.797 21.2205 4.22729C21.2658 4.65759 21.4586 4.73686 21.9349 4.90671L22.3431 5.06524C22.4062 5.09869 22.4599 5.14723 22.4995 5.20653C22.5391 5.26582 22.5633 5.334 22.57 5.40495C22.5762 5.46867 22.5692 5.533 22.5494 5.59389C22.5296 5.65479 22.4973 5.71092 22.4547 5.75878C22.4121 5.80664 22.3601 5.84518 22.3018 5.87198C22.2436 5.89878 22.1805 5.91326 22.1163 5.91452C21.9969 5.92519 21.8766 5.91054 21.7632 5.87151C21.6499 5.83248 21.5461 5.76995 21.4586 5.68804L21.4132 6.06172ZM19.6895 5.14451L19.4627 4.08009H19.6442C19.768 4.03092 19.9059 4.03092 20.0297 4.08009C20.0984 4.12031 20.158 4.17426 20.2049 4.23856C20.2517 4.30286 20.2847 4.37613 20.3019 4.45377C20.3222 4.52147 20.3283 4.59265 20.3196 4.6628C20.3109 4.73295 20.2876 4.80052 20.2514 4.86122C20.2151 4.92193 20.1666 4.97443 20.1089 5.0154C20.0512 5.05637 19.9857 5.08492 19.9163 5.09921L19.6895 5.14451ZM19.6895 5.29172L20.7442 6.19761L20.8236 6.29952L21.3906 6.16364C21.3435 6.14701 21.3008 6.1199 21.2658 6.08437L20.1318 5.16716C20.2277 5.12824 20.3189 5.07887 20.404 5.01995C20.5176 4.94922 20.6054 4.84388 20.6544 4.71949C20.7034 4.5951 20.711 4.45826 20.6761 4.32921C20.6495 4.22812 20.6019 4.13374 20.5365 4.05217C20.471 3.97059 20.3892 3.90362 20.2962 3.8556C20.2032 3.80758 20.1012 3.77957 19.9967 3.77337C19.8922 3.76718 19.7875 3.78294 19.6895 3.81964L18.8957 4.01214C18.9005 4.05353 18.9005 4.09532 18.8957 4.13671L19.4627 6.4807C19.4685 6.52202 19.4685 6.56394 19.4627 6.60526L19.9277 6.49202C19.9221 6.45069 19.9221 6.40879 19.9277 6.36746L19.6895 5.29172ZM16.9225 4.69156C16.9469 4.72631 16.966 4.76447 16.9792 4.8048L17.8184 7.06953C17.8241 7.11085 17.8241 7.15276 17.8184 7.19409L19.1225 6.71849L19.0431 6.49202L18.9071 6.55996L18.238 6.79776L17.8751 5.8126L18.6122 5.54084H18.7483L18.6689 5.33701L18.5328 5.40495L17.8071 5.6654L17.4555 4.70289L18.204 4.43112H18.3287L18.2493 4.22729L16.9225 4.69156ZM14.4957 5.97113L14.6091 6.06172L16.5256 7.77159L16.605 7.85086L16.9679 7.64703V7.54512L16.4802 4.9973C16.4748 4.95596 16.4748 4.91408 16.4802 4.87274L16.2648 4.9973C16.2718 5.03091 16.2718 5.06561 16.2648 5.09921L16.6844 7.296L15.006 5.8126L14.9266 5.74466V5.6654L14.4957 5.97113ZM13.7926 6.41276L13.872 6.51467L15.1988 8.5416C15.203 8.57923 15.203 8.61721 15.1988 8.65483L15.5957 8.39439C15.5637 8.36512 15.5369 8.33067 15.5163 8.29248L14.3029 6.26555C14.2781 6.23108 14.2589 6.19285 14.2462 6.15231L13.7926 6.41276ZM11.9782 8.46233L14.4503 9.14175H14.5297L14.9266 8.93793C14.8904 8.91931 14.8592 8.89209 14.8359 8.85866L13.2823 6.96761C13.2534 6.93393 13.2304 6.89566 13.2143 6.85438L13.0328 7.00158L13.1235 7.09217L14.3936 8.65483L11.9782 7.99806H11.8874L11.5246 8.22454L11.6153 8.31513L13.1689 10.1948L13.2369 10.3081L13.4184 10.1948L13.3277 10.1043L11.9782 8.46233ZM9.68744 10.1948H9.82353L12.171 11.2366H12.273L12.5565 10.9309L12.4885 10.8403L11.2411 8.57557C11.2367 8.53795 11.2367 8.49996 11.2411 8.46233L11.071 8.64351C11.099 8.66484 11.1222 8.69185 11.139 8.72278L12.2163 10.6931L10.1751 9.7872H10.0957L9.68744 10.1948ZM8.55342 11.6216L9.02971 12.369L9.25651 12.2331L8.85961 11.4291L8.55342 11.6216ZM8.20187 12.1199L8.67816 12.8672L8.91631 12.72L8.5194 11.916L8.20187 12.1199ZM9.15445 15.517C9.38228 15.3889 9.57055 15.2009 9.69878 14.9734C9.80825 14.7931 9.85971 14.5837 9.84621 14.3733C9.82999 14.2468 9.7847 14.1258 9.71388 14.0197C9.64305 13.9137 9.54862 13.8254 9.43796 13.7618C9.2978 13.6797 9.1338 13.6477 8.97301 13.6712C8.7637 13.7115 8.56837 13.8051 8.406 13.943C8.00909 14.2261 7.86166 14.2714 7.68022 14.1581C7.63298 14.1293 7.5921 14.0913 7.56005 14.0462C7.52801 14.0012 7.50546 13.9501 7.4938 13.8961C7.48213 13.8421 7.48158 13.7863 7.49219 13.732C7.50279 13.6778 7.52432 13.6263 7.55548 13.5806C7.66257 13.4036 7.82641 13.2679 8.02043 13.1956L7.8163 12.9805C7.63888 13.1001 7.49143 13.259 7.38538 13.4447C7.31987 13.5309 7.27299 13.6296 7.2477 13.7348C7.22241 13.84 7.21925 13.9492 7.23844 14.0557C7.25763 14.1621 7.29874 14.2634 7.35917 14.3532C7.4196 14.4429 7.49803 14.5192 7.5895 14.5771C7.873 14.7356 8.14517 14.6903 8.55342 14.3959L8.92765 14.1581C8.99143 14.1213 9.06379 14.102 9.13744 14.102C9.21109 14.102 9.28345 14.1213 9.34724 14.1581C9.40296 14.1904 9.45135 14.2339 9.48935 14.2858C9.52736 14.3377 9.55414 14.397 9.568 14.4598C9.58186 14.5226 9.5825 14.5876 9.56987 14.6507C9.55725 14.7138 9.53163 14.7735 9.49466 14.8262C9.43444 14.9304 9.35276 15.0206 9.25501 15.0909C9.15726 15.1611 9.04568 15.2099 8.92765 15.2339L9.15445 15.517ZM5.91114 16.4002H6.05857L8.61012 16.7286H8.72352L8.90497 16.3549L8.81424 16.287L6.98847 14.4752L6.90908 14.3733L6.79568 14.5997L6.8864 14.6564L8.47404 16.2417L6.20599 15.9473H6.11527L5.91114 16.4002ZM5.53692 18.7668L7.99775 18.0535H8.07713L8.20187 17.6911H8.07713L5.80908 16.8871L5.69568 16.8305L5.6163 17.057H5.74104L7.63486 17.7137L5.21939 18.4158H5.11733L4.98124 18.8121H5.10599L7.37403 19.6048L7.48744 19.6614L7.56682 19.4349H7.44208L5.53692 18.7668ZM4.67506 19.8313H4.7998L7.06785 20.556H7.18125L7.32867 20.103H7.20393L4.93588 19.3783H4.82248L4.67506 19.8313ZM4.10805 21.9601L4.34619 22.0167C4.33931 21.9603 4.33931 21.9033 4.34619 21.8469L4.49361 21.2807L6.76166 21.8695H6.8864L7.01115 21.4052H6.8864L4.61836 20.8164L4.76578 20.2502C4.77835 20.1953 4.79738 20.1421 4.82248 20.0917L4.58434 20.0351L4.10805 21.9601ZM6.24001 24.2248C6.41465 24.0301 6.53233 23.7911 6.58022 23.5341C6.64218 23.335 6.64218 23.1217 6.58022 22.9226C6.5246 22.8093 6.44342 22.7105 6.34307 22.6339C6.24271 22.5572 6.12591 22.5049 6.00187 22.481C5.84491 22.4472 5.68112 22.4671 5.53692 22.5376C5.35433 22.6449 5.20212 22.7969 5.09465 22.9792C4.81114 23.3756 4.6864 23.4662 4.47093 23.4209C4.41644 23.409 4.36495 23.3862 4.31963 23.3538C4.27432 23.3213 4.23614 23.28 4.20745 23.2322C4.17876 23.1845 4.16017 23.1314 4.15283 23.0762C4.14548 23.021 4.14954 22.9649 4.16475 22.9113C4.21037 22.7107 4.3222 22.5312 4.48227 22.4017L4.22145 22.2658C4.09124 22.4358 4.00198 22.6334 3.96062 22.8433C3.92613 22.9459 3.91332 23.0544 3.923 23.1621C3.93268 23.2698 3.96466 23.3743 4.01689 23.4691C4.06912 23.5638 4.14047 23.6467 4.22644 23.7124C4.3124 23.7782 4.4111 23.8254 4.51629 23.8512C4.83382 23.9078 5.07197 23.7832 5.37815 23.3756C5.46136 23.2565 5.55228 23.143 5.65032 23.0359C5.70109 22.9844 5.76432 22.947 5.83386 22.9271C5.90341 22.9073 5.9769 22.9057 6.04723 22.9226C6.1105 22.9356 6.17036 22.9616 6.22301 22.999C6.27565 23.0363 6.31992 23.0842 6.353 23.1396C6.38607 23.195 6.40722 23.2567 6.41511 23.3207C6.42299 23.3847 6.41742 23.4497 6.39877 23.5114C6.37475 23.6293 6.32594 23.7407 6.25556 23.8383C6.18518 23.9359 6.09484 24.0175 5.99053 24.0776L6.24001 24.2248ZM3.50701 26.1838H3.6431L6.14929 25.6176H6.26269V25.21H6.16063L3.80186 24.1342L3.6998 24.0663V24.3154H3.80186L5.8431 25.2553L3.66578 25.7535H3.5864L3.50701 26.1838ZM3.56371 26.5688C3.46161 26.8049 3.40764 27.059 3.40495 27.3162C3.38615 27.5008 3.40816 27.6873 3.4694 27.8625C3.53065 28.0377 3.62965 28.1973 3.75942 28.3301C3.8892 28.4629 4.04658 28.5657 4.22046 28.6312C4.39434 28.6966 4.58049 28.7232 4.76578 28.709C4.96484 28.7218 5.16439 28.6932 5.35179 28.625C5.53919 28.5568 5.71036 28.4504 5.85444 28.3127C5.97449 28.1932 6.06787 28.0497 6.12846 27.8916C6.18905 27.7335 6.21547 27.5644 6.20599 27.3955C6.21411 27.0786 6.16018 26.7632 6.04723 26.4669C5.99505 26.4794 5.94064 26.4794 5.88846 26.4669H4.8565H4.73176V26.9312H4.8565H5.8998C5.97495 27.0575 6.01049 27.2035 6.00187 27.3502C6.00187 27.8937 5.5596 28.2108 4.86784 28.1881C4.54229 28.2096 4.22109 28.1041 3.97196 27.8937C3.88764 27.8118 3.82177 27.7128 3.77875 27.6035C3.73573 27.4941 3.71655 27.3769 3.72248 27.2596C3.72971 26.9944 3.82551 26.7394 3.99464 26.5349L3.56371 26.5688ZM3.42763 30.9284L3.56371 30.8718L5.99053 30.0339H6.10393V29.6262H5.99053L3.5864 28.7656H3.47299V29.0147H3.5864L5.71836 29.7281L3.5864 30.4189H3.49567L3.42763 30.9284ZM5.26475 32.4118L4.01732 32.1174L5.15135 31.5625L5.26475 32.4118ZM5.46887 32.4118L5.36681 31.4267L6.05857 31.0983H6.17197V30.5774L6.06991 30.6567L3.6998 31.789H3.60908V32.174H3.71114L6.25135 32.7968H6.36475V32.5477H6.25135L5.46887 32.4118ZM6.72764 35.6051C6.7989 35.3533 6.7989 35.0868 6.72764 34.8351C6.69053 34.6294 6.59165 34.4398 6.44414 34.2915C6.34844 34.21 6.23537 34.1513 6.11354 34.1199C5.99171 34.0885 5.86432 34.0852 5.74104 34.1104C5.58188 34.1411 5.43792 34.2249 5.33279 34.3482C5.20514 34.5171 5.12313 34.716 5.09465 34.9257C4.99258 35.4126 4.9132 35.5258 4.69774 35.5711C4.64321 35.5808 4.58729 35.5792 4.53338 35.5666C4.47946 35.554 4.42868 35.5305 4.38413 35.4977C4.33957 35.4649 4.30218 35.4233 4.27421 35.3756C4.24624 35.3279 4.22829 35.275 4.22145 35.2201C4.18523 35.0192 4.21716 34.812 4.31217 34.6313H4.01732C3.9685 34.8398 3.9685 35.0568 4.01732 35.2654C4.02533 35.3735 4.05581 35.4789 4.10681 35.5746C4.15781 35.6704 4.22822 35.7545 4.31356 35.8216C4.3989 35.8887 4.4973 35.9374 4.60249 35.9644C4.70768 35.9915 4.81736 35.9964 4.92454 35.9788C5.24207 35.9108 5.41217 35.6957 5.52558 35.2088C5.55773 35.0665 5.5994 34.9265 5.65032 34.7898C5.67644 34.7228 5.71936 34.6637 5.77497 34.6181C5.83057 34.5725 5.89699 34.5419 5.96785 34.5293C6.03064 34.5163 6.09546 34.5164 6.15821 34.5297C6.22096 34.5429 6.2803 34.5689 6.33249 34.6061C6.38468 34.6434 6.42859 34.691 6.46147 34.746C6.49434 34.8009 6.51547 34.8621 6.52352 34.9257C6.54674 35.0437 6.5446 35.1653 6.51723 35.2824C6.48986 35.3995 6.43789 35.5095 6.36475 35.6051H6.72764ZM4.8565 38.3794L4.9699 38.2888L7.11321 36.8847H7.21527L7.11321 36.4883H6.98847L4.40289 36.3072H4.27815L4.34619 36.5449H4.44825L6.7163 36.7148L4.84516 37.9378H4.76578L4.8565 38.3794ZM5.6163 40.4176L5.8431 40.3384C5.81057 40.2928 5.7839 40.2434 5.76372 40.1912L5.59362 39.6363L7.78228 38.855H7.90703L7.74826 38.402L7.63486 38.4586L5.44619 39.24L5.25341 38.6964C5.24742 38.6438 5.24742 38.5906 5.25341 38.5379L5.02661 38.6172L5.6163 40.4176ZM5.74104 40.5422C5.74917 40.7587 5.80329 40.971 5.8998 41.165C5.95852 41.3395 6.05561 41.4988 6.18395 41.631C6.3123 41.7632 6.46864 41.8651 6.64152 41.9291C6.81441 41.9932 6.99946 42.0178 7.18311 42.0012C7.36676 41.9846 7.54436 41.9271 7.7029 41.8331C7.88033 41.7833 8.04407 41.6938 8.18169 41.5713C8.3193 41.4489 8.42718 41.2968 8.49714 41.1265C8.56709 40.9563 8.59729 40.7723 8.58542 40.5887C8.57356 40.405 8.51996 40.2265 8.42868 40.0666C8.332 39.8433 8.17976 39.6484 7.98641 39.5004L7.66888 39.6476C7.78372 39.6804 7.88995 39.738 7.98008 39.8162C8.07021 39.8945 8.14205 39.9916 8.19053 40.1006C8.41734 40.5988 8.19053 41.1084 7.51012 41.4028C6.8297 41.6972 6.37609 41.5726 6.09259 41.0744C6.04674 40.965 6.02313 40.8476 6.02313 40.729C6.02313 40.6104 6.04674 40.493 6.09259 40.3837L5.74104 40.5422ZM8.12249 44.3809L9.25651 42.1162V42.0482L9.06373 41.7085C9.04043 41.742 9.00928 41.7692 8.97301 41.7878L6.85238 42.9202H6.72764L6.84104 43.124L6.98847 43.0334L8.7462 42.0596L7.61218 44.3243C7.60283 44.3595 7.58307 44.3911 7.55548 44.4149L7.7596 44.7886L7.86166 44.7093L9.98229 43.5769H10.107L9.99363 43.3731L9.89157 43.4524L8.12249 44.3809ZM10.4813 45.6831L9.25651 46.0908L9.93693 44.9584L10.4813 45.6831ZM10.674 45.6152L10.0617 44.8338L10.4699 44.1884C10.4898 44.1531 10.5169 44.1222 10.5493 44.0978L10.2318 43.6902C10.2372 43.7315 10.2372 43.7734 10.2318 43.8147L8.83693 46.0794L8.78022 46.1474L9.01837 46.4531H9.10909L11.5246 45.5359H11.6493L11.5246 45.2981H11.4225L10.674 45.6152ZM12.6586 46.8721C12.6113 46.6149 12.4935 46.3758 12.3184 46.1814C12.1821 46.0214 12.0001 45.9068 11.7967 45.853C11.6726 45.8293 11.5447 45.8344 11.4228 45.8678C11.3009 45.9011 11.1883 45.9619 11.0936 46.0455C10.9702 46.1504 10.8863 46.2942 10.8555 46.4531C10.8277 46.6641 10.8551 46.8786 10.9349 47.0759C11.0823 47.5515 11.071 47.6874 10.9349 47.8346C10.8923 47.8703 10.8429 47.897 10.7897 47.913C10.7365 47.9289 10.6806 47.9339 10.6254 47.9275C10.5702 47.9212 10.5168 47.9036 10.4686 47.876C10.4205 47.8483 10.3785 47.8111 10.3452 47.7667C10.2112 47.6077 10.1353 47.4081 10.1297 47.2005L9.85755 47.325C9.91557 47.531 10.0203 47.7209 10.1637 47.8799C10.2245 47.9686 10.3029 48.0439 10.3941 48.101C10.4852 48.1581 10.5872 48.1958 10.6937 48.2117C10.8001 48.2276 10.9087 48.2215 11.0126 48.1936C11.1166 48.1658 11.2136 48.1168 11.2978 48.0498C11.5359 47.8346 11.5813 47.5628 11.4338 47.0759C11.3902 46.9349 11.3561 46.7912 11.3318 46.6456C11.321 46.5742 11.329 46.5012 11.3548 46.4338C11.3806 46.3663 11.4235 46.3067 11.4792 46.2606C11.5272 46.218 11.5836 46.1858 11.6447 46.166C11.7058 46.1462 11.7704 46.1393 11.8343 46.1457C11.8983 46.1521 11.9602 46.1716 12.0162 46.2031C12.0721 46.2346 12.121 46.2773 12.1596 46.3286C12.2391 46.4191 12.2985 46.5255 12.3336 46.6407C12.3688 46.7559 12.3791 46.8772 12.3637 46.9967L12.6586 46.8721ZM11.9782 48.4801L11.173 48.8764L11.2978 49.1255L12.1369 48.8198L11.9782 48.4801ZM12.4318 48.8764L11.6266 49.2727L11.7514 49.5218L12.5905 49.2161L12.4318 48.8764Z" fill="#1A1A18"/>
<path d="M52.4816 46.8315H52.867V48.9392C52.867 49.1568 52.8157 49.3511 52.7132 49.5221C52.6116 49.692 52.4681 49.8262 52.2826 49.9246C52.0971 50.022 51.8795 50.0707 51.6298 50.0707C51.3801 50.0707 51.1625 50.022 50.977 49.9246C50.7915 49.8262 50.6475 49.692 50.5449 49.5221C50.4434 49.3511 50.3926 49.1568 50.3926 48.9392V46.8315H50.778V48.9081C50.778 49.0635 50.8122 49.2019 50.8806 49.3231C50.949 49.4433 51.0464 49.5381 51.1728 49.6075C51.3003 49.6759 51.4526 49.7101 51.6298 49.7101C51.807 49.7101 51.9593 49.6759 52.0868 49.6075C52.2142 49.5381 52.3116 49.4433 52.379 49.3231C52.4474 49.2019 52.4816 49.0635 52.4816 48.9081V46.8315Z" fill="white"/>
<path d="M56.161 46.8315V50.0148H55.788L54.0534 47.5154H54.0223V50.0148H53.6368V46.8315H54.0098L55.7507 49.3371H55.7818V46.8315H56.161Z" fill="white"/>
<path d="M57.3178 46.8315V50.0148H56.9323V46.8315H57.3178Z" fill="white"/>
<path d="M58.2212 46.8315L59.1663 49.5112H59.2036L60.1486 46.8315H60.5527L59.3839 50.0148H58.986L57.8171 46.8315H58.2212Z" fill="white"/>
<path d="M61.0485 50.0148V46.8315H62.9697V47.1735H61.434V48.2491H62.8702V48.591H61.434V49.6728H62.9945V50.0148H61.0485Z" fill="white"/>
<path d="M63.6644 50.0148V46.8315H64.74C64.9887 46.8315 65.1928 46.874 65.3524 46.959C65.512 47.0429 65.6301 47.1585 65.7068 47.3056C65.7835 47.4527 65.8218 47.6201 65.8218 47.8077C65.8218 47.9952 65.7835 48.1615 65.7068 48.3066C65.6301 48.4517 65.5125 48.5656 65.354 48.6485C65.1954 48.7304 64.9929 48.7713 64.7462 48.7713H63.8758V48.4232H64.7338C64.9037 48.4232 65.0405 48.3983 65.1441 48.3486C65.2488 48.2988 65.3244 48.2284 65.3711 48.1372C65.4187 48.0449 65.4426 47.9351 65.4426 47.8077C65.4426 47.6802 65.4187 47.5688 65.3711 47.4735C65.3234 47.3781 65.2472 47.3046 65.1426 47.2528C65.0379 47.1999 64.8996 47.1735 64.7276 47.1735H64.0499V50.0148H63.6644ZM65.1628 48.5848L65.9462 50.0148H65.4985L64.7276 48.5848H65.1628Z" fill="white"/>
<path d="M68.205 47.6274C68.1863 47.4698 68.1107 47.3476 67.978 47.2605C67.8454 47.1735 67.6827 47.13 67.49 47.13C67.3491 47.13 67.2257 47.1528 67.1201 47.1984C67.0154 47.244 66.9335 47.3066 66.8745 47.3864C66.8164 47.4662 66.7874 47.5569 66.7874 47.6584C66.7874 47.7434 66.8076 47.8165 66.8481 47.8776C66.8895 47.9377 66.9423 47.988 67.0066 48.0284C67.0708 48.0677 67.1382 48.1004 67.2086 48.1263C67.2791 48.1512 67.3439 48.1714 67.4029 48.1869L67.7262 48.2739C67.8091 48.2957 67.9014 48.3258 68.0029 48.3641C68.1055 48.4024 68.2034 48.4548 68.2967 48.5211C68.391 48.5864 68.4687 48.6703 68.5298 48.7729C68.5909 48.8755 68.6215 49.0014 68.6215 49.1506C68.6215 49.3226 68.5764 49.478 68.4863 49.6169C68.3972 49.7557 68.2666 49.8661 68.0946 49.9479C67.9236 50.0298 67.7159 50.0707 67.4713 50.0707C67.2434 50.0707 67.046 50.0339 66.8791 49.9604C66.7133 49.8868 66.5828 49.7842 66.4875 49.6526C66.3932 49.521 66.3398 49.3682 66.3274 49.1941H66.7253C66.7356 49.3143 66.776 49.4138 66.8465 49.4925C66.918 49.5702 67.0081 49.6283 67.1169 49.6666C67.2268 49.7039 67.3449 49.7226 67.4713 49.7226C67.6185 49.7226 67.7506 49.6987 67.8677 49.6511C67.9848 49.6024 68.0775 49.535 68.1459 49.449C68.2143 49.362 68.2485 49.2604 68.2485 49.1444C68.2485 49.0387 68.219 48.9527 68.1599 48.8863C68.1008 48.82 68.0231 48.7661 67.9267 48.7247C67.8304 48.6832 67.7262 48.647 67.6143 48.6159L67.2226 48.504C66.9739 48.4325 66.7771 48.3304 66.632 48.1978C66.4869 48.0651 66.4144 47.8916 66.4144 47.6771C66.4144 47.4989 66.4626 47.3434 66.5589 47.2108C66.6564 47.0771 66.7869 46.9735 66.9506 46.8999C67.1154 46.8253 67.2993 46.788 67.5024 46.788C67.7076 46.788 67.89 46.8248 68.0495 46.8984C68.2091 46.9709 68.3355 47.0704 68.4288 47.1968C68.5231 47.3232 68.5728 47.4667 68.578 47.6274H68.205Z" fill="white"/>
<path d="M69.6408 46.8315V50.0148H69.2553V46.8315H69.6408Z" fill="white"/>
<path d="M71.396 50.0148H70.4136V46.8315H71.4395C71.7483 46.8315 72.0125 46.8953 72.2322 47.0227C72.4519 47.1491 72.6202 47.331 72.7373 47.5683C72.8544 47.8045 72.913 48.0874 72.913 48.4169C72.913 48.7485 72.8539 49.034 72.7358 49.2734C72.6176 49.5117 72.4456 49.6951 72.2197 49.8236C71.9938 49.951 71.7193 50.0148 71.396 50.0148ZM70.7991 49.6728H71.3711C71.6343 49.6728 71.8524 49.622 72.0255 49.5205C72.1985 49.419 72.3275 49.2744 72.4125 49.0868C72.4974 48.8993 72.5399 48.676 72.5399 48.4169C72.5399 48.16 72.498 47.9387 72.414 47.7532C72.3301 47.5667 72.2047 47.4237 72.0379 47.3243C71.8711 47.2237 71.6633 47.1735 71.4146 47.1735H70.7991V49.6728Z" fill="white"/>
<path d="M73.5405 50.0148H73.1364L74.3052 46.8315H74.7031L75.872 50.0148H75.4679L74.5166 47.3351H74.4918L73.5405 50.0148ZM73.6897 48.7713H75.3186V49.1133H73.6897V48.7713Z" fill="white"/>
<path d="M77.3501 50.0148H76.3678V46.8315H77.3937C77.7024 46.8315 77.9667 46.8953 78.1863 47.0227C78.406 47.1491 78.5744 47.331 78.6915 47.5683C78.8086 47.8045 78.8671 48.0874 78.8671 48.4169C78.8671 48.7485 78.8081 49.034 78.6899 49.2734C78.5718 49.5117 78.3998 49.6951 78.1739 49.8236C77.948 49.951 77.6734 50.0148 77.3501 50.0148ZM76.7533 49.6728H77.3253C77.5885 49.6728 77.8066 49.622 77.9796 49.5205C78.1527 49.419 78.2817 49.2744 78.3666 49.0868C78.4516 48.8993 78.4941 48.676 78.4941 48.4169C78.4941 48.16 78.4521 47.9387 78.3682 47.7532C78.2843 47.5667 78.1589 47.4237 77.9921 47.3243C77.8252 47.2237 77.6175 47.1735 77.3688 47.1735H76.7533V49.6728Z" fill="white"/>
<path d="M83.2689 46.8315V50.0148H82.8959L81.1613 47.5154H81.1302V50.0148H80.7447V46.8315H81.1178L82.8586 49.3371H82.8897V46.8315H83.2689Z" fill="white"/>
<path d="M84.1708 50.0148H83.7667L84.9355 46.8315H85.3335L86.5023 50.0148H86.0982L85.1469 47.3351H85.1221L84.1708 50.0148ZM84.32 48.7713H85.949V49.1133H84.32V48.7713Z" fill="white"/>
<path d="M89.41 47.8263H89.0245C89.0017 47.7154 88.9619 47.618 88.9049 47.5341C88.8489 47.4502 88.7805 47.3797 88.6997 47.3227C88.6199 47.2647 88.5313 47.2212 88.4339 47.1921C88.3365 47.1631 88.235 47.1486 88.1293 47.1486C87.9365 47.1486 87.7619 47.1973 87.6055 47.2947C87.45 47.3921 87.3262 47.5356 87.234 47.7253C87.1428 47.9149 87.0972 48.1475 87.0972 48.4232C87.0972 48.6988 87.1428 48.9314 87.234 49.121C87.3262 49.3107 87.45 49.4542 87.6055 49.5516C87.7619 49.649 87.9365 49.6977 88.1293 49.6977C88.235 49.6977 88.3365 49.6832 88.4339 49.6542C88.5313 49.6252 88.6199 49.5822 88.6997 49.5252C88.7805 49.4671 88.8489 49.3962 88.9049 49.3122C88.9619 49.2273 89.0017 49.1298 89.0245 49.02H89.41C89.381 49.1827 89.3282 49.3283 89.2515 49.4568C89.1748 49.5853 89.0795 49.6946 88.9655 49.7847C88.8515 49.8738 88.7235 49.9417 88.5816 49.9883C88.4406 50.035 88.2899 50.0583 88.1293 50.0583C87.8578 50.0583 87.6163 49.992 87.405 49.8593C87.1936 49.7267 87.0273 49.5381 86.906 49.2936C86.7848 49.049 86.7242 48.7589 86.7242 48.4232C86.7242 48.0874 86.7848 47.7973 86.906 47.5527C87.0273 47.3082 87.1936 47.1196 87.405 46.987C87.6163 46.8543 87.8578 46.788 88.1293 46.788C88.2899 46.788 88.4406 46.8113 88.5816 46.858C88.7235 46.9046 88.8515 46.973 88.9655 47.0631C89.0795 47.1522 89.1748 47.2611 89.2515 47.3895C89.3282 47.517 89.381 47.6626 89.41 47.8263Z" fill="white"/>
<path d="M90.4184 46.8315V50.0148H90.0329V46.8315H90.4184Z" fill="white"/>
<path d="M93.8771 48.4232C93.8771 48.7589 93.8165 49.049 93.6952 49.2936C93.574 49.5381 93.4077 49.7267 93.1963 49.8593C92.9849 49.992 92.7435 50.0583 92.472 50.0583C92.2005 50.0583 91.9591 49.992 91.7477 49.8593C91.5363 49.7267 91.37 49.5381 91.2488 49.2936C91.1275 49.049 91.0669 48.7589 91.0669 48.4232C91.0669 48.0874 91.1275 47.7973 91.2488 47.5527C91.37 47.3082 91.5363 47.1196 91.7477 46.987C91.9591 46.8543 92.2005 46.788 92.472 46.788C92.7435 46.788 92.9849 46.8543 93.1963 46.987C93.4077 47.1196 93.574 47.3082 93.6952 47.5527C93.8165 47.7973 93.8771 48.0874 93.8771 48.4232ZM93.5041 48.4232C93.5041 48.1475 93.458 47.9149 93.3657 47.7253C93.2745 47.5356 93.1507 47.3921 92.9943 47.2947C92.8388 47.1973 92.6647 47.1486 92.472 47.1486C92.2793 47.1486 92.1047 47.1973 91.9482 47.2947C91.7928 47.3921 91.6689 47.5356 91.5767 47.7253C91.4855 47.9149 91.4399 48.1475 91.4399 48.4232C91.4399 48.6988 91.4855 48.9314 91.5767 49.121C91.6689 49.3107 91.7928 49.4542 91.9482 49.5516C92.1047 49.649 92.2793 49.6977 92.472 49.6977C92.6647 49.6977 92.8388 49.649 92.9943 49.5516C93.1507 49.4542 93.2745 49.3107 93.3657 49.121C93.458 48.9314 93.5041 48.6988 93.5041 48.4232Z" fill="white"/>
<path d="M97.0494 46.8315V50.0148H96.6764L94.9418 47.5154H94.9107V50.0148H94.5252V46.8315H94.8983L96.6391 49.3371H96.6702V46.8315H97.0494Z" fill="white"/>
<path d="M97.9513 50.0148H97.5472L98.7161 46.8315H99.114L100.283 50.0148H99.8787L98.9274 47.3351H98.9026L97.9513 50.0148ZM98.1005 48.7713H99.7295V49.1133H98.1005V48.7713Z" fill="white"/>
<path d="M100.779 50.0148V46.8315H101.164V49.6728H102.644V50.0148H100.779Z" fill="white"/>
<path d="M105.454 50.0148H104.472V46.8315H105.498C105.806 46.8315 106.071 46.8953 106.29 47.0227C106.51 47.1491 106.678 47.331 106.795 47.5683C106.912 47.8045 106.971 48.0874 106.971 48.4169C106.971 48.7485 106.912 49.034 106.794 49.2734C106.676 49.5117 106.504 49.6951 106.278 49.8236C106.052 49.951 105.777 50.0148 105.454 50.0148ZM104.857 49.6728H105.429C105.692 49.6728 105.91 49.622 106.083 49.5205C106.257 49.419 106.386 49.2744 106.47 49.0868C106.555 48.8993 106.598 48.676 106.598 48.4169C106.598 48.16 106.556 47.9387 106.472 47.7532C106.388 47.5667 106.263 47.4237 106.096 47.3243C105.929 47.2237 105.721 47.1735 105.473 47.1735H104.857V49.6728Z" fill="white"/>
<path d="M107.618 50.0148V46.8315H109.539V47.1735H108.003V48.2491H109.439V48.591H108.003V49.6728H109.564V50.0148H107.618Z" fill="white"/>
<path d="M113.205 47.6274C113.187 47.4698 113.111 47.3476 112.978 47.2605C112.846 47.1735 112.683 47.13 112.49 47.13C112.349 47.13 112.226 47.1528 112.12 47.1984C112.016 47.244 111.934 47.3066 111.875 47.3864C111.817 47.4662 111.788 47.5569 111.788 47.6584C111.788 47.7434 111.808 47.8165 111.848 47.8776C111.89 47.9377 111.943 47.988 112.007 48.0284C112.071 48.0677 112.139 48.1004 112.209 48.1263C112.279 48.1512 112.344 48.1714 112.403 48.1869L112.727 48.2739C112.809 48.2957 112.902 48.3258 113.003 48.3641C113.106 48.4024 113.204 48.4548 113.297 48.5211C113.391 48.5864 113.469 48.6703 113.53 48.7729C113.591 48.8755 113.622 49.0014 113.622 49.1506C113.622 49.3226 113.577 49.478 113.487 49.6169C113.398 49.7557 113.267 49.8661 113.095 49.9479C112.924 50.0298 112.716 50.0707 112.472 50.0707C112.244 50.0707 112.046 50.0339 111.879 49.9604C111.714 49.8868 111.583 49.7842 111.488 49.6526C111.394 49.521 111.34 49.3682 111.328 49.1941H111.726C111.736 49.3143 111.776 49.4138 111.847 49.4925C111.918 49.5702 112.009 49.6283 112.117 49.6666C112.227 49.7039 112.345 49.7226 112.472 49.7226C112.619 49.7226 112.751 49.6987 112.868 49.6511C112.985 49.6024 113.078 49.535 113.146 49.449C113.215 49.362 113.249 49.2604 113.249 49.1444C113.249 49.0387 113.219 48.9527 113.16 48.8863C113.101 48.82 113.023 48.7661 112.927 48.7247C112.831 48.6832 112.727 48.647 112.615 48.6159L112.223 48.504C111.974 48.4325 111.777 48.3304 111.632 48.1978C111.487 48.0651 111.415 47.8916 111.415 47.6771C111.415 47.4989 111.463 47.3434 111.559 47.2108C111.657 47.0771 111.787 46.9735 111.951 46.8999C112.116 46.8253 112.3 46.788 112.503 46.788C112.708 46.788 112.89 46.8248 113.05 46.8984C113.209 46.9709 113.336 47.0704 113.429 47.1968C113.523 47.3232 113.573 47.4667 113.578 47.6274H113.205Z" fill="white"/>
<path d="M114.386 50.0148H113.982L115.151 46.8315H115.549L116.718 50.0148H116.314L115.362 47.3351H115.337L114.386 50.0148ZM114.535 48.7713H116.164V49.1133H114.535V48.7713Z" fill="white"/>
<path d="M119.738 46.8315V50.0148H119.365L117.63 47.5154H117.599V50.0148H117.214V46.8315H117.587L119.327 49.3371H119.358V46.8315H119.738Z" fill="white"/>
<path d="M121.871 50.0148H121.466L122.635 46.8315H123.033L124.202 50.0148H123.798L122.847 47.3351H122.822L121.871 50.0148ZM122.02 48.7713H123.649V49.1133H122.02V48.7713Z" fill="white"/>
<path d="M126.724 47.8263C126.69 47.7216 126.645 47.6279 126.589 47.545C126.534 47.461 126.468 47.3895 126.392 47.3305C126.316 47.2714 126.23 47.2263 126.134 47.1953C126.037 47.1642 125.932 47.1486 125.817 47.1486C125.628 47.1486 125.457 47.1973 125.302 47.2947C125.148 47.3921 125.025 47.5356 124.934 47.7253C124.843 47.9149 124.797 48.1475 124.797 48.4232C124.797 48.6988 124.843 48.9314 124.935 49.121C125.028 49.3107 125.152 49.4542 125.31 49.5516C125.467 49.649 125.645 49.6977 125.841 49.6977C126.024 49.6977 126.184 49.6588 126.323 49.5811C126.463 49.5024 126.572 49.3915 126.65 49.2485C126.728 49.1045 126.768 48.935 126.768 48.7402L126.886 48.7651H125.929V48.4232H127.141V48.7651C127.141 49.0273 127.085 49.2552 126.973 49.449C126.862 49.6428 126.709 49.793 126.513 49.8998C126.318 50.0054 126.094 50.0583 125.841 50.0583C125.56 50.0583 125.312 49.992 125.099 49.8593C124.886 49.7267 124.72 49.5381 124.601 49.2936C124.483 49.049 124.424 48.7589 124.424 48.4232C124.424 48.1714 124.458 47.9449 124.525 47.7439C124.593 47.5419 124.69 47.3699 124.814 47.2279C124.938 47.0859 125.086 46.9771 125.255 46.9015C125.425 46.8258 125.612 46.788 125.817 46.788C125.984 46.788 126.141 46.8134 126.286 46.8642C126.432 46.9139 126.562 46.9849 126.676 47.0771C126.791 47.1683 126.887 47.2776 126.964 47.4051C127.04 47.5315 127.093 47.6719 127.122 47.8263H126.724Z" fill="white"/>
<path d="M129.89 46.8315H130.276V48.9392C130.276 49.1568 130.224 49.3511 130.122 49.5221C130.02 49.692 129.877 49.8262 129.691 49.9246C129.506 50.022 129.288 50.0707 129.038 50.0707C128.789 50.0707 128.571 50.022 128.385 49.9246C128.2 49.8262 128.056 49.692 127.953 49.5221C127.852 49.3511 127.801 49.1568 127.801 48.9392V46.8315H128.187V48.9081C128.187 49.0635 128.221 49.2019 128.289 49.3231C128.358 49.4433 128.455 49.5381 128.581 49.6075C128.709 49.6759 128.861 49.7101 129.038 49.7101C129.215 49.7101 129.368 49.6759 129.495 49.6075C129.623 49.5381 129.72 49.4433 129.787 49.3231C129.856 49.2019 129.89 49.0635 129.89 48.9081V46.8315Z" fill="white"/>
<path d="M132.786 47.6274C132.767 47.4698 132.692 47.3476 132.559 47.2605C132.427 47.1735 132.264 47.13 132.071 47.13C131.93 47.13 131.807 47.1528 131.701 47.1984C131.597 47.244 131.515 47.3066 131.456 47.3864C131.398 47.4662 131.369 47.5569 131.369 47.6584C131.369 47.7434 131.389 47.8165 131.429 47.8776C131.471 47.9377 131.524 47.988 131.588 48.0284C131.652 48.0677 131.719 48.1004 131.79 48.1263C131.86 48.1512 131.925 48.1714 131.984 48.1869L132.307 48.2739C132.39 48.2957 132.483 48.3258 132.584 48.3641C132.687 48.4024 132.785 48.4548 132.878 48.5211C132.972 48.5864 133.05 48.6703 133.111 48.7729C133.172 48.8755 133.203 49.0014 133.203 49.1506C133.203 49.3226 133.158 49.478 133.067 49.6169C132.978 49.7557 132.848 49.8661 132.676 49.9479C132.505 50.0298 132.297 50.0707 132.052 50.0707C131.825 50.0707 131.627 50.0339 131.46 49.9604C131.295 49.8868 131.164 49.7842 131.069 49.6526C130.974 49.521 130.921 49.3682 130.909 49.1941H131.306C131.317 49.3143 131.357 49.4138 131.428 49.4925C131.499 49.5702 131.589 49.6283 131.698 49.6666C131.808 49.7039 131.926 49.7226 132.052 49.7226C132.2 49.7226 132.332 49.6987 132.449 49.6511C132.566 49.6024 132.659 49.535 132.727 49.449C132.795 49.362 132.83 49.2604 132.83 49.1444C132.83 49.0387 132.8 48.9527 132.741 48.8863C132.682 48.82 132.604 48.7661 132.508 48.7247C132.412 48.6832 132.307 48.647 132.195 48.6159L131.804 48.504C131.555 48.4325 131.358 48.3304 131.213 48.1978C131.068 48.0651 130.996 47.8916 130.996 47.6771C130.996 47.4989 131.044 47.3434 131.14 47.2108C131.238 47.0771 131.368 46.9735 131.532 46.8999C131.697 46.8253 131.88 46.788 132.084 46.788C132.289 46.788 132.471 46.8248 132.631 46.8984C132.79 46.9709 132.917 47.0704 133.01 47.1968C133.104 47.3232 133.154 47.4667 133.159 47.6274H132.786Z" fill="white"/>
<path d="M133.662 47.1735V46.8315H136.05V47.1735H135.049V50.0148H134.663V47.1735H133.662Z" fill="white"/>
<path d="M137.03 46.8315V50.0148H136.645V46.8315H137.03ZM136.67 46.5082L137.049 45.787H137.478L136.993 46.5082H136.67Z" fill="white"/>
<path d="M140.327 46.8315V50.0148H139.954L138.22 47.5154H138.189V50.0148H137.803V46.8315H138.176L139.917 49.3371H139.948V46.8315H140.327Z" fill="white"/>
<path d="M143.312 50.0148H142.33V46.8315H143.355C143.664 46.8315 143.928 46.8953 144.148 47.0227C144.368 47.1491 144.536 47.331 144.653 47.5683C144.77 47.8045 144.829 48.0874 144.829 48.4169C144.829 48.7485 144.77 49.034 144.652 49.2734C144.534 49.5117 144.362 49.6951 144.136 49.8236C143.91 49.951 143.635 50.0148 143.312 50.0148ZM142.715 49.6728H143.287C143.55 49.6728 143.768 49.622 143.941 49.5205C144.114 49.419 144.243 49.2744 144.328 49.0868C144.413 48.8993 144.456 48.676 144.456 48.4169C144.456 48.16 144.414 47.9387 144.33 47.7532C144.246 47.5667 144.121 47.4237 143.954 47.3243C143.787 47.2237 143.579 47.1735 143.331 47.1735H142.715V49.6728Z" fill="white"/>
<path d="M145.476 50.0148V46.8315H147.397V47.1735H145.861V48.2491H147.297V48.591H145.861V49.6728H147.422V50.0148H145.476Z" fill="white"/>
<path d="M149.453 50.0148H149.049L150.218 46.8315H150.616L151.784 50.0148H151.38L150.429 47.3351H150.404L149.453 50.0148ZM149.602 48.7713H151.231V49.1133H149.602V48.7713Z" fill="white"/>
<path d="M152.28 50.0148V46.8315H153.356C153.605 46.8315 153.809 46.874 153.968 46.959C154.128 47.0429 154.246 47.1585 154.323 47.3056C154.399 47.4527 154.438 47.6201 154.438 47.8077C154.438 47.9952 154.399 48.1615 154.323 48.3066C154.246 48.4517 154.128 48.5656 153.97 48.6485C153.811 48.7304 153.609 48.7713 153.362 48.7713H152.492V48.4232H153.35C153.52 48.4232 153.656 48.3983 153.76 48.3486C153.865 48.2988 153.94 48.2284 153.987 48.1372C154.035 48.0449 154.058 47.9351 154.058 47.8077C154.058 47.6802 154.035 47.5688 153.987 47.4735C153.939 47.3781 153.863 47.3046 153.758 47.2528C153.654 47.1999 153.515 47.1735 153.343 47.1735H152.666V50.0148H152.28ZM153.779 48.5848L154.562 50.0148H154.114L153.343 48.5848H153.779Z" fill="white"/>
<path d="M155.08 50.0148V46.8315H157.001V47.1735H155.465V48.2491H156.902V48.591H155.465V49.6728H157.026V50.0148H155.08Z" fill="white"/>
<path d="M158.852 49.02H159.275L159.629 49.4863L159.723 49.6106L160.251 50.3132H159.828L159.48 49.8469L159.393 49.7288L158.852 49.02ZM160.382 48.4232C160.382 48.7589 160.321 49.049 160.2 49.2936C160.079 49.5381 159.912 49.7267 159.701 49.8593C159.49 49.992 159.248 50.0583 158.977 50.0583C158.705 50.0583 158.464 49.992 158.252 49.8593C158.041 49.7267 157.875 49.5381 157.753 49.2936C157.632 49.049 157.572 48.7589 157.572 48.4232C157.572 48.0874 157.632 47.7973 157.753 47.5527C157.875 47.3082 158.041 47.1196 158.252 46.987C158.464 46.8543 158.705 46.788 158.977 46.788C159.248 46.788 159.49 46.8543 159.701 46.987C159.912 47.1196 160.079 47.3082 160.2 47.5527C160.321 47.7973 160.382 48.0874 160.382 48.4232ZM160.009 48.4232C160.009 48.1475 159.963 47.9149 159.87 47.7253C159.779 47.5356 159.655 47.3921 159.499 47.2947C159.343 47.1973 159.169 47.1486 158.977 47.1486C158.784 47.1486 158.609 47.1973 158.453 47.2947C158.297 47.3921 158.174 47.5356 158.081 47.7253C157.99 47.9149 157.945 48.1475 157.945 48.4232C157.945 48.6988 157.99 48.9314 158.081 49.121C158.174 49.3107 158.297 49.4542 158.453 49.5516C158.609 49.649 158.784 49.6977 158.977 49.6977C159.169 49.6977 159.343 49.649 159.499 49.5516C159.655 49.4542 159.779 49.3107 159.87 49.121C159.963 48.9314 160.009 48.6988 160.009 48.4232Z" fill="white"/>
<path d="M163.119 46.8315H163.504V48.9392C163.504 49.1568 163.453 49.3511 163.35 49.5221C163.249 49.692 163.105 49.8262 162.92 49.9246C162.734 50.022 162.517 50.0707 162.267 50.0707C162.017 50.0707 161.8 50.022 161.614 49.9246C161.429 49.8262 161.285 49.692 161.182 49.5221C161.081 49.3511 161.03 49.1568 161.03 48.9392V46.8315H161.415V48.9081C161.415 49.0635 161.45 49.2019 161.518 49.3231C161.586 49.4433 161.684 49.5381 161.81 49.6075C161.938 49.6759 162.09 49.7101 162.267 49.7101C162.444 49.7101 162.597 49.6759 162.724 49.6075C162.852 49.5381 162.949 49.4433 163.016 49.3231C163.085 49.2019 163.119 49.0635 163.119 48.9081V46.8315Z" fill="white"/>
<path d="M164.66 46.8315V50.0148H164.274V46.8315H164.66Z" fill="white"/>
<path d="M165.432 50.0148V46.8315H166.508C166.758 46.8315 166.962 46.8766 167.12 46.9668C167.28 47.0559 167.398 47.1766 167.475 47.3289C167.551 47.4812 167.59 47.6512 167.59 47.8387C167.59 48.0263 167.551 48.1967 167.475 48.3501C167.399 48.5035 167.282 48.6257 167.124 48.7169C166.965 48.8071 166.762 48.8521 166.514 48.8521H165.743V48.5102H166.502C166.673 48.5102 166.81 48.4807 166.914 48.4216C167.017 48.3625 167.092 48.2828 167.139 48.1822C167.187 48.0807 167.211 47.9662 167.211 47.8387C167.211 47.7113 167.187 47.5973 167.139 47.4968C167.092 47.3963 167.017 47.3175 166.912 47.2605C166.807 47.2025 166.669 47.1735 166.496 47.1735H165.818V50.0148H165.432Z" fill="white"/>
<path d="M168.016 50.0148H167.612L168.781 46.8315H169.179L170.348 50.0148H169.944L168.993 47.3351H168.968L168.016 50.0148ZM168.166 48.7713H169.795V49.1133H168.166V48.7713Z" fill="white"/>
</svg>
